<?xml version="1.0" encoding="UTF-8"?>
<svg xmlns="http://www.w3.org/2000/svg" width="2050.08" height="1080" viewBox="0 0 2050.08 1080">
  <defs>
    <style>
      .cls-1 {
        fill: #fff;
      }

      .cls-2 {
        fill: #121b24;
      }
    </style>
  </defs>
  <g id="Layer_2" data-name="Layer 2">
    <rect class="cls-2" width="2050.08" height="1080"/>
  </g>
  <g id="Layer_1" data-name="Layer 1">
    <path class="cls-1" d="M74.69,108.35s65.81,4.65,65.81,38.71c0,35.61-24,51.87-45.68,56.52,20.9-31.74,37.16-60.39-20.13-95.23Z"/>
    <path class="cls-1" d="M126.18,261.21c1.93,0,1.93-3,0-3s-1.93,3,0,3h0Z"/>
    <path class="cls-1" d="M228.37,433.08c1.93,0,1.93-3,0-3s-1.93,3,0,3h0Z"/>
    <path class="cls-1" d="M665.01,341.73c1.93,0,1.93-3,0-3s-1.93,3,0,3h0Z"/>
    <path class="cls-1" d="M686.69,535.27c1.93,0,1.93-3,0-3s-1.93,3,0,3h0Z"/>
    <path class="cls-1" d="M1422.18,553.85c1.93,0,1.93-3,0-3s-1.93,3,0,3h0Z"/>
    <path class="cls-1" d="M1118.69,320.05c1.93,0,1.93-3,0-3s-1.93,3,0,3h0Z"/>
    <path class="cls-1" d="M389.4,230.24c1.93,0,1.93-3,0-3s-1.93,3,0,3h0Z"/>
    <path class="cls-1" d="M827.6,157.47c1.93,0,1.93-3,0-3s-1.93,3,0,3h0Z"/>
    <path class="cls-1" d="M872.5,431.53c1.93,0,1.93-3,0-3s-1.93,3,0,3h0Z"/>
    <path class="cls-1" d="M1290.56,270.5c1.93,0,1.93-3,0-3s-1.93,3,0,3h0Z"/>
    <path class="cls-1" d="M1643.6,134.24c1.93,0,1.93-3,0-3s-1.93,3,0,3h0Z"/>
    <path class="cls-1" d="M1792.24,508.95c1.93,0,1.93-3,0-3s-1.93,3,0,3h0Z"/>
    <path class="cls-1" d="M1623.47,597.21c1.93,0,1.93-3,0-3s-1.93,3,0,3h0Z"/>
    <path class="cls-1" d="M1024.24,600.31c1.93,0,1.93-3,0-3s-1.93,3,0,3h0Z"/>
    <path class="cls-1" d="M62.69,741.21c1.93,0,1.93-3,0-3s-1.93,3,0,3h0Z"/>
    <path class="cls-1" d="M107.6,602.85c3.22,0,3.22-5,0-5s-3.22,5,0,5h0Z"/>
    <path class="cls-1" d="M112.24,420.15c3.22,0,3.22-5,0-5s-3.22,5,0,5h0Z"/>
    <path class="cls-1" d="M271.72,204.92c3.22,0,3.22-5,0-5s-3.22,5,0,5h0Z"/>
    <path class="cls-1" d="M344.5,242.08c3.22,0,3.22-5,0-5s-3.22,5,0,5h0Z"/>
    <path class="cls-1" d="M1304.5,116.66c3.22,0,3.22-5,0-5s-3.22,5,0,5h0Z"/>
    <path class="cls-1" d="M646.43,705.05c3.22,0,3.22-5,0-5s-3.22,5,0,5h0Z"/>
    <path class="cls-1" d="M375.47,536.27c3.22,0,3.22-5,0-5s-3.22,5,0,5h0Z"/>
    <path class="cls-1" d="M1217.79,638.47c3.22,0,3.22-5,0-5s-3.22,5,0,5h0Z"/>
    <path class="cls-1" d="M1233.27,489.47h-1.55c-.34-.01-.67,.06-.96,.22-.31,.1-.58,.27-.8,.52-.24,.23-.42,.49-.52,.8-.16,.3-.23,.62-.22,.96l.09,.66c.12,.42,.33,.79,.64,1.1l.51,.39c.39,.23,.81,.34,1.26,.34h1.55c.34,.01,.67-.06,.96-.22,.31-.1,.58-.27,.8-.52,.24-.23,.42-.49,.52-.8,.16-.3,.23-.62,.22-.96l-.09-.66c-.12-.42-.33-.79-.64-1.1l-.51-.39c-.39-.23-.81-.34-1.26-.34h0Z"/>
    <path class="cls-1" d="M810.34,714.72l-1.55,1.55c-.24,.23-.42,.49-.52,.8-.16,.3-.23,.62-.22,.96-.01,.34,.06,.67,.22,.96,.1,.31,.27,.58,.52,.8l.51,.39c.39,.23,.81,.34,1.26,.34l.66-.09c.42-.12,.79-.33,1.1-.64l1.55-1.55c.24-.23,.42-.49,.52-.8,.16-.3,.23-.62,.22-.96,.01-.34-.06-.67-.22-.96-.1-.31-.27-.58-.52-.8l-.51-.39c-.39-.23-.81-.34-1.26-.34l-.66,.09c-.42,.12-.79,.33-1.1,.64h0Z"/>
    <path class="cls-1" d="M1409.79,677.18c3.22,0,3.22-5,0-5s-3.22,5,0,5h0Z"/>
    <path class="cls-1" d="M1473.27,452.66c3.22,0,3.22-5,0-5s-3.22,5,0,5h0Z"/>
    <path class="cls-1" d="M1846.43,675.63c3.22,0,3.22-5,0-5s-3.22,5,0,5h0Z"/>
    <path class="cls-1" d="M1832.5,310.66c5.79,0,5.8-9,0-9s-5.8,9,0,9h0Z"/>
    <path class="cls-1" d="M596.89,192.98c5.79,0,5.8-9,0-9s-5.8,9,0,9h0Z"/>
    <path class="cls-1" d="M519.47,315.31c5.79,0,5.8-9,0-9s-5.8,9,0,9h0Z"/>
    <path class="cls-1" d="M926.69,307.56c5.79,0,5.8-9,0-9s-5.8,9,0,9h0Z"/>
    <path class="cls-1" d="M1010.31,522.79c5.79,0,5.8-9,0-9s-5.8,9,0,9h0Z"/>
    <path class="cls-1" d="M209.79,745.76c5.79,0,5.8-9,0-9s-5.8,9,0,9h0Z"/>
    <path class="cls-1" d="M870.95,100.08c5.79,0,5.8-9,0-9s-5.8,9,0,9h0Z"/>
    <path class="cls-1" d="M180.37,78.4c5.79,0,5.8-9,0-9s-5.8,9,0,9h0Z"/>
    <path class="cls-1" d="M346.05,52.08c5.79,0,5.8-9,0-9s-5.8,9,0,9h0Z"/>
    <path class="cls-1" d="M1787.6,69.11c5.79,0,5.8-9,0-9s-5.8,9,0,9h0Z"/>
    <path class="cls-1" d="M1871.21,135.69c5.79,0,5.8-9,0-9s-5.8,9,0,9h0Z"/>
    <path class="cls-1" d="M1928.5,751.95c5.79,0,5.8-9,0-9s-5.8,9,0,9h0Z"/>
    <path class="cls-1" d="M1572.37,818.53c5.79,0,5.8-9,0-9s-5.8,9,0,9h0Z"/>
    <path class="cls-1" d="M1233.27,864.98c5.79,0,5.8-9,0-9s-5.8,9,0,9h0Z"/>
    <path class="cls-1" d="M963.85,820.08c5.79,0,5.8-9,0-9s-5.8,9,0,9h0Z"/>
    <path class="cls-1" d="M1022.69,44.34c5.79,0,5.8-9,0-9s-5.8,9,0,9h0Z"/>
    <path class="cls-1" d="M54.95,931.56c5.79,0,5.8-9,0-9s-5.8,9,0,9h0Z"/>
    <path class="cls-1" d="M1784.6,832.98c1.93,0,1.93-3,0-3s-1.93,3,0,3h0Z"/>
    <path class="cls-1" d="M1705.63,927.44c1.93,0,1.93-3,0-3s-1.93,3,0,3h0Z"/>
    <path class="cls-1" d="M1481.9,946.32l-3.1,1.55c-.32,.16-.6,.56-.69,.9-.1,.36-.05,.84,.15,1.16s.51,.6,.9,.69c.41,.09,.78,.04,1.16-.15l3.1-1.55c.32-.16,.6-.56,.69-.9,.1-.36,.05-.84-.15-1.16s-.51-.6-.9-.69c-.41-.09-.78-.04-1.16,.15h0Z"/>
    <path class="cls-1" d="M480.85,877.89c1.93,0,1.93-3,0-3s-1.93,3,0,3h0Z"/>
    <path class="cls-1" d="M465.37,769.5c1.93,0,1.93-3,0-3s-1.93,3,0,3h0Z"/>
    <path class="cls-1" d="M293.5,899.56c1.93,0,1.93-3,0-3s-1.93,3,0,3h0Z"/>
    <path class="cls-1" d="M291.95,957.31c4.5,0,4.51-7,0-7s-4.51,7,0,7h0Z"/>
    <path class="cls-1" d="M375.56,788.53c4.5,0,4.51-7,0-7s-4.51,7,0,7h0Z"/>
    <path class="cls-1" d="M482.4,664.66c4.5,0,4.51-7,0-7s-4.51,7,0,7h0Z"/>
    <path class="cls-1" d="M679.05,841.18c4.5,0,4.51-7,0-7s-4.51,7,0,7h0Z"/>
    <path class="cls-1" d="M596.98,992.92c4.5,0,4.51-7,0-7s-4.51,7,0,7h0Z"/>
    <path class="cls-1" d="M905.11,975.89c4.5,0,4.51-7,0-7s-4.51,7,0,7h0Z"/>
    <path class="cls-1" d="M953.11,898.47c4.5,0,4.51-7,0-7s-4.51,7,0,7h0Z"/>
    <path class="cls-1" d="M1131.18,975.89c4.5,0,4.51-7,0-7s-4.51,7,0,7h0Z"/>
    <path class="cls-1" d="M1738.14,977.44c4.5,0,4.51-7,0-7s-4.51,7,0,7h0Z"/>
    <path class="cls-1" d="M1925.5,1036.27c4.5,0,4.51-7,0-7s-4.51,7,0,7h0Z"/>
    <path class="cls-1" d="M1970.4,924.79c4.5,0,4.51-7,0-7s-4.51,7,0,7h0Z"/>
    <path class="cls-1" d="M1347.95,1008.4c4.5,0,4.51-7,0-7s-4.51,7,0,7h0Z"/>
    <path class="cls-1" d="M1524.47,709.56c4.5,0,4.51-7,0-7s-4.51,7,0,7h0Z"/>
    <path class="cls-1" d="M1651.43,372.02c4.5,0,4.51-7,0-7s-4.51,7,0,7h0Z"/>
    <path class="cls-1" d="M1533.76,269.82c4.5,0,4.51-7,0-7s-4.51,7,0,7h0Z"/>
    <path class="cls-1" d="M1958.01,409.18c4.5,0,4.51-7,0-7s-4.51,7,0,7h0Z"/>
  </g>
</svg>