<?xml version="1.0" encoding="UTF-8"?>
<svg id="Layer_1" data-name="Layer 1" xmlns="http://www.w3.org/2000/svg" width="283.58" height="736.21" viewBox="0 0 283.58 736.21">
  <defs>
    <style>
      .cls-1 {
        fill: #5c84a0;
      }

      .cls-2 {
        fill: #3d586b;
      }

      .cls-3 {
        fill: #94a5b1;
      }

      .cls-4, .cls-5 {
        fill: #fff;
      }

      .cls-6 {
        fill: #d7e2e9;
      }

      .cls-7 {
        fill: #9dd8d7;
      }

      .cls-8, .cls-9 {
        fill: #354856;
      }

      .cls-10 {
        fill: #b2bbc2;
      }

      .cls-11 {
        fill: #354857;
      }

      .cls-12, .cls-13, .cls-14, .cls-5, .cls-15, .cls-9, .cls-16, .cls-17 {
        stroke-miterlimit: 10;
      }

      .cls-12, .cls-13, .cls-14, .cls-15, .cls-9, .cls-16, .cls-17 {
        stroke: #354856;
      }

      .cls-12, .cls-13, .cls-14, .cls-15, .cls-16, .cls-17 {
        fill: none;
      }

      .cls-12, .cls-14, .cls-16 {
        stroke-linecap: round;
      }

      .cls-12, .cls-9, .cls-17 {
        stroke-width: 2px;
      }

      .cls-18 {
        fill: #84a7bf;
      }

      .cls-19 {
        fill: #7a8c9c;
      }

      .cls-20 {
        fill: #eddbd2;
      }

      .cls-21 {
        fill: #86a9c2;
      }

      .cls-22 {
        fill: #f1efeb;
      }

      .cls-23 {
        fill: #cccac7;
      }

      .cls-24 {
        fill: #7eadad;
      }

      .cls-14, .cls-15 {
        stroke-width: 3px;
      }

      .cls-5 {
        stroke: #000;
      }

      .cls-25 {
        fill: #b3b3b3;
      }

      .cls-26 {
        fill: #99c2de;
      }

      .cls-27 {
        fill: #62707d;
      }
    </style>
  </defs>
  <rect class="cls-5" x="65.58" y="96.42" width="142.26" height="38.13"/>
  <path class="cls-6" d="M40.91,481.5c2.12,3.22,7.24,10,5.96,15.45h-14.45c-3.74,0-6.78,3.08-6.78,6.87v1.07c-28.07-.34-8.76-22.98-8.76-22.98"/>
  <path class="cls-6" d="M32.42,496.95h14.45c-1.03,4.25-6,7.71-19.47,7.97-.62,0-1.19,.02-1.76-.02v-1.07c0-3.79,3.04-6.87,6.78-6.87h0Z"/>
  <path class="cls-6" d="M255.23,486.82c2.12,3.22,7.24,10,5.96,15.45h-14.45c-3.74,0-6.78,3.08-6.78,6.87v1.07c-28.07-.34-8.76-22.98-8.76-22.98"/>
  <path class="cls-6" d="M246.74,502.28h14.45c-1.03,4.25-6,7.71-19.47,7.97-.62,0-1.19,.02-1.76-.02v-1.07c0-3.79,3.04-6.87,6.78-6.87h0Z"/>
  <path class="cls-12" d="M228.96,489.68s-15.61,23.3,12.58,20.42,19.68-11.7,14.78-23.42"/>
  <path class="cls-12" d="M14.82,484.49s-15.61,23.3,12.58,20.42c28.19-2.88,19.68-11.7,14.78-23.42"/>
  <path class="cls-19" d="M202.39,417.79c1.94-1.11,3.74-2.42,5.36-3.87,0,0-6.61,218.79-5.26,231.35,1.21,11.35,4.6,51.14-6.57,57.12h-.03l-6.3,.45c-1.7-.07-3.39,.1-5.12,.35l-13.8,.97c-8.55-1.76-16.23-11.52-21.59-48.82-9.55-66.67-19.93-216.79-19.93-216.79h0c22-1.73,50.79-7.85,73.24-20.76h0Z"/>
  <path class="cls-27" d="M134.09,496.95s2.28,17.33,10.67,73.81c6.77,45.61,6.97,108.05,28.26,132.08-13.16,1.31-27.91-19.24-38.92-205.89h0Z"/>
  <path class="cls-19" d="M129.15,438.28v.28s4.98,10.01,3.9,37.81c-.13,3.39,1.93,9.33,1.65,13.16-2.07,27.56-5.93,53.82-6.55,64.9-1.42,25.3-4.01,135.58-9.37,143.57-.69,1-1.8,1.9-3.29,2.7h-.03l-18.42,8.05-17.98-7.43c-1.56-.9-2.63-2.01-3.11-3.32-1.8-5.02-11.66-44.35-15.22-114.03-3.01-59.44,0-151.19,0-151.19,1,.35,2.04,.59,3.11,.76,15.98,2.53,39.37,6.12,65.32,4.74h0Z"/>
  <path class="cls-27" d="M68.74,457.43s51.1,34.82,129.3-2.34c2.07-30.46-44.49-27.36-44.49-27.36l-80.77,11.21-4.04,18.5h0Z"/>
  <path class="cls-27" d="M60.75,445.4s-7.18,207.14,15.18,252.6c6.88,2.7,7.28,6.23,9.98,6.16-4.26-6.37-27.16-98.12-16.68-254.5l-8.53-2.83"/>
  <path class="cls-27" d="M133.06,498.52s-7.28,90.23-9.6,151.65c-1.33,35.2,.58,52.22-17.81,52.22,9.29-7.83,13.2-57.87,14.71-90.42,3.61-77.68,8.78-96,12.69-113.46h0Z"/>
  <path class="cls-27" d="M198.17,450.92s-5.42,164.8-5.42,168.28,3.48,48.77,2.71,52.65,6.68,29.52-5.87,30.99c13.62-3.9,14.58-10.5,12.75-61.97s2.72-132.36,2.72-132.36l1.85-66-8.74,8.41h0Z"/>
  <path class="cls-12" d="M60.71,432.78s-3.01,91.75,0,151.19c3.56,69.68,13.42,109.02,15.22,114.03,.48,1.31,1.56,2.42,3.11,3.32,7.92,4.67,27.82,3.94,36.4-.62h.03c1.49-.8,2.59-1.7,3.29-2.7,4.36-7.99,6.76-113.68,9.37-138.96,2.6-25.16,5.22-65,5.22-65"/>
  <path class="cls-12" d="M207.75,413.92s-6.61,218.79-5.26,231.35c1.21,11.35,4.6,51.14-6.57,57.12h-.03c-1.21,.62-2.56,.86-4.12,.62-.73-.1-1.45-.17-2.18-.17-1.7-.07-3.39,.1-5.12,.35-4.71,.66-9.38,1.9-13.8,.97-8.55-1.76-16.23-11.52-21.59-48.82-9.55-66.67-15.71-161.3-15.71-161.3"/>
  <path class="cls-6" d="M137.35,156.19l.02,.02c-1.79,1.26-3.06,3.08-3.69,4.12-.23,0-.47,.02-.7,.03-.46-1.38-1.13-2.6-2.08-3.52,0,0,1.37-12.41,.34-27.59h5.72c-.94,14.89,.39,26.95,.39,26.95h0Z"/>
  <path class="cls-6" d="M227.57,129.24h.61c-7.43,11.7-17.27,25.56-30.21,42.17-3.75,4.82-7.76,9.87-12.05,15.16l-.38-.31c4.3-13.38-6.96-24.18-36.67-25.84-.73-1.22-1.7-2.54-2.95-3.97-3.47-2.5-6.4-1.78-8.57-.25l-.02-.02s-1.33-12.06-.39-26.95h82.71c-4.94,9.13-32.93,49.67-32.93,49.67l.71,4.62c5.54-4.62,40.12-54.3,40.12-54.3l.02,.02Z"/>
  <path class="cls-6" d="M131.24,129.24c1.03,15.18-.34,27.59-.34,27.59-1.04-1.01-2.41-1.67-4.22-1.75-4.56-.22-8.62,2.94-9.92,6.81-29.63,4.86-24.31,18.47-24.11,18.95-3.84-4.94-8.4-10.97-13.25-17.7-7.29-10.12-15.26-21.83-22.48-33.9h74.32Z"/>
  <path class="cls-21" d="M150.38,164.07s.59,9.27-17.48,11.63c.58,.11,15.21,1.73,21.82-10.83,6.9,1.44,19.98,4.89,23.96,10.9,5.48,8.3,1.19,16.3,1.19,16.3l5.79-6.39s3.96-17.31-16.33-21.69-20.29-3.52-20.29-3.52l1.33,3.59h.01Z"/>
  <path class="cls-22" d="M175.73,312.9c1.15-1.98,.73-9.04-2.91-6.86s-4.57-.93-7.38-1.04c-2.8-.11-3.64,3.54-3.64,3.54-.52,1.55,2.6,6.23,5.2,4.89,2.6-1.36,7.59,1.45,8.73-.52h0Zm3.74-11.18c0-1.44-1.16-2.6-2.6-2.6s-2.6,1.16-2.6,2.6,1.16,2.6,2.6,2.6,2.6-1.16,2.6-2.6Zm-26.7-2.65l.18-5.96c.1-3.25,2.79-5.8,6.03-5.75l6.89,.12,8.9,.16,4.95,.09c3.23,.05,5.83,2.69,5.83,5.93v21.78c0,3.35-2.76,6.03-6.11,5.93l-7.25-.21-5.71-.18-8.43-.25c-3.27-.1-5.84-2.83-5.74-6.11l.3-9.85,.17-5.69h0Zm18.86-.54c0-1.44-1.16-2.61-2.6-2.61s-2.6,1.17-2.6,2.61,1.16,2.6,2.6,2.6,2.6-1.17,2.6-2.6Zm-7.27,2.01c0-1.44-1.16-2.6-2.6-2.6s-2.6,1.16-2.6,2.6,1.16,2.6,2.6,2.6,2.6-1.16,2.6-2.6Z"/>
  <path class="cls-22" d="M247.89,244.41c.31,.21,.3,.67-.03,.84l-7.33,4.12c-.33,.18-.34,.65-.02,.85l7.11,4.46c.37,.23,.28,.78-.13,.9l-12.73,3.48c-.41,.11-.5,.64-.15,.88l5.92,4.1c.32,.21,.27,.7-.08,.86l-11.54,5.05c-6.83-6.64-15.44-11.5-25.16-13.82l-21.67-5.18c-11.17-23.2-7.99-51.79-7.93-52.36h0c1.43-1.18,2.88-2.45,4.33-3.82,2.3-2.79,4.53-5.52,6.68-8.19,4.29-5.29,8.3-10.34,12.05-15.16l3.32,7.3c.11,.25,.41,.36,.66,.25l6.98-3.2c.38-.18,.79,.18,.68,.58l-2.11,7.81c-.1,.36,.22,.69,.59,.61l11.07-2.51c.38-.08,.7,.28,.57,.64l-2.59,7.79c-.13,.38,.23,.75,.62,.63l9.91-3.22c.34-.11,.69,.17,.64,.53l-1.29,11.25c-.03,.29,.2,.55,.49,.55h9.27c.31,0,.54,.28,.49,.58l-1.53,8.55c-.05,.31,.18,.58,.49,.58h5.95c.34,0,.58,.34,.47,.66l-2.96,8.59c-.11,.31,.1,.62,.41,.66l7,.73c.34,.04,.55,.4,.4,.71l-4.95,10.12c-.14,.28,0,.61,.31,.7l5.58,1.61c.38,.11,.49,.6,.19,.85l-5.84,5.05c-.25,.21-.22,.6,.05,.79l5.8,3.82v-.02Z"/>
  <path class="cls-22" d="M78.63,163.14c4.86,6.75,9.43,12.78,13.26,17.72,6.66,8.61,11.13,13.9,11.13,13.9,0,0,2.24,2.53,6.26,5.66h0l-9.27,53.13-21.54,.49c-10.38,.23-20.18,2.95-28.8,7.59l-16-6.04c-.34-.13-.41-.59-.12-.81l10.34-8.02c.27-.21,.24-.62-.06-.78l-10.49-5.74c-.27-.15-.32-.51-.11-.74l5.67-6.13c.19-.2,.16-.52-.05-.69l-11.36-8.71c-.3-.23-.22-.69,.12-.81l9.13-3.3c.26-.09,.38-.39,.27-.64l-5.57-12.19c-.14-.31,.09-.66,.43-.66h7.86c.33,0,.56-.33,.44-.64l-5.49-14.89c-.14-.38,.24-.75,.61-.6l10.56,4.08c.31,.11,.64-.11,.64-.43l.26-12.31c0-.33,.34-.55,.65-.42l8.19,3.49c.31,.13,.66-.09,.66-.43v-8.14c0-.35,.37-.58,.68-.42l7.66,4c.31,.16,.69-.07,.69-.42v-9.27c0-.34,.34-.57,.64-.44l8.45,3.49c.25,.1,.53-.02,.62-.27l3.61-9.63,.03,.02Z"/>
  <path class="cls-26" d="M35.23,81.32h0C-13.56,64.94,4.12,13.77,4.12,13.77c.02,0,.04,.02,.05,.03,28.89,18.23,31.59,44.01,31.59,44.01-.5,.85-.89,1.75-1.15,2.68-1.65,5.85-1.25,12.96,.62,20.82h0Z"/>
  <path class="cls-26" d="M132.45,174.95s24.23-.28,15.67-14.53c29.71,1.66,40.97,12.46,36.67,25.84l.38,.31c-2.16,2.66-4.39,5.39-6.68,8.19-1.45,1.37-2.9,2.64-4.33,3.81h0c-28.86,23.75-53.72,10.53-64.87,1.85h0c-4.02-3.13-6.26-5.67-6.26-5.67,0,0-4.46-5.29-11.13-13.9,0,0-6.07-14.01,24.1-18.97-1.79,5.34,1.69,12.04,16.46,13.06h0Z"/>
  <path class="cls-6" d="M174.14,198.58c-.07,.57-3.25,29.16,7.93,52.36-19.97,10.42-49.94,12.59-82.06,2.6,14.59-18.91,9.37-52.47,9.27-53.12,11.15,8.68,36.01,21.9,64.87-1.85h0Z"/>
  <path class="cls-7" d="M152.59,304.77l-.3,9.85c-.1,3.28,2.47,6.01,5.74,6.11l8.43,.25,5.71,.18,7.25,.21c3.35,.1,6.11-2.58,6.11-5.93v-21.78c0-3.24-2.6-5.87-5.83-5.93l-4.95-.09-8.9-.16-6.89-.12c-3.25-.05-5.93,2.5-6.03,5.75l-.18,5.96-.17,5.69h0ZM54.28,442.51l-3.8,40.53-25.98,5.62-13.68-5.62c-5.8-16.55,.53-122.76,5.55-171.68,2.23-21.7,15.16-39.99,33.29-49.74,8.62-4.64,18.42-7.36,28.8-7.59l21.54-.49c32.12,9.98,62.09,7.82,82.06-2.6l21.67,5.18c9.72,2.32,18.33,7.18,25.16,13.82,9.23,8.94,15.22,21.08,16.34,34.5l20.38,185.99-24.8,2.47-23.85-6.73-3.7-45.09-31.2,14.69-52.92,7.99-43.03-4.38-19.9-7.79-11.93-9.08h0Z"/>
  <circle class="cls-8" cx="176.86" cy="301.73" r="2.6"/>
  <path class="cls-8" d="M172.82,306.04c3.64-2.18,4.06,4.89,2.91,6.86-1.14,1.98-6.13-.83-8.73,.52-2.6,1.35-5.72-3.33-5.2-4.89,0,0,.83-3.64,3.64-3.54,2.81,.11,3.74,3.22,7.38,1.04h0Z"/>
  <path class="cls-8" d="M169.02,295.94c1.44,0,2.6,1.17,2.6,2.61s-1.16,2.6-2.6,2.6-2.6-1.17-2.6-2.6,1.16-2.61,2.6-2.61Z"/>
  <path class="cls-3" d="M100.64,253.74s10.37-2.8,15.35-34.08c4.7,1.02,27.26,8.87,49.87-.57,2.23-.93,13,33.08,15.3,31.85-7.49-23.14-7.02-52.36-7.02-52.36,0,0-9.85,11.86-28.68,12.93-18.84,1.07-36-9.76-36-9.76l-8.81,51.98h0Z"/>
  <path class="cls-2" d="M135.86,15.36c18.18-1.14,32.57,20.7,29.73,26.1-5.5-.08-10.01,1.78-14.05,1.87-4.56-17.65-15.68-27.97-15.68-27.97h0Z"/>
  <path class="cls-21" d="M149.95,160.32s40.01,2.2,35.21,26.25l-3.63,4.46s-5.42-24.23-28.65-26.03c-2.13,5.75-4.91,12.09-20.36,10.37,4.1-3.07,17.42-15.05,17.42-15.05h0Z"/>
  <circle class="cls-8" cx="161.74" cy="300.56" r="2.6"/>
  <path class="cls-4" d="M151.1,41.52l.02,.11c-5.78,.05-9.69,.2-10.64,.25,.96-.05,4.85-.25,10.62-.36Z"/>
  <path class="cls-26" d="M148.11,160.42c8.56,14.25-15.67,14.53-15.67,14.53,0,0,1.6-7.96,0-13.81h0s.15-.33,.46-.82c5.52-.21,10.59-.17,15.21,.1h0Zm-9.69,9.16c2.34,.41,3.71-.83,2.01-2.17-2.27-1.77-2.48-3.8-2.5-4.25,0-.02-.02-.02-.03,0-.21,.76-1.65,6.06,.51,6.43h.01Z"/>
  <path class="cls-26" d="M145.17,156.45c1.25,1.43,2.22,2.76,2.95,3.97-4.62-.27-9.69-.31-15.21-.1,.63-1.04,1.9-2.86,3.69-4.12,2.17-1.53,5.1-2.25,8.57,.25h0Z"/>
  <path class="cls-8" d="M137.95,163.15c.02,.45,.22,2.48,2.5,4.25,1.7,1.34,.32,2.58-2.01,2.17-2.17-.38-.73-5.67-.51-6.43,0-.02,.03,0,.03,0h-.01Z"/>
  <path class="cls-2" d="M135.86,10.73c5.91-5.91,44.51-17.37,43.17-1.75-1.54,17.93-43.17,1.75-43.17,1.75Z"/>
  <path class="cls-1" d="M121.62,41.07c3.64-16.5,14.23-25.71,14.23-25.71,0,0,10.68,8.51,15.25,26.16-5.77,.11-9.66,.31-10.62,.36h-.34c-.96-.07-8.21-.57-18.52-.81Z"/>
  <path class="cls-2" d="M135.86,10.73c-5.9,5.91-45.09,11-50.02,.29-4.92-10.7,27.14-15.67,50.02-.29Z"/>
  <path class="cls-4" d="M132.45,161.14c1.6,5.84,0,13.81,0,13.81v-13.81Z"/>
  <path class="cls-26" d="M115.99,161.89c4.47-.74,9.74-1.27,15.95-1.53h.26c.09,.25,.17,.52,.25,.78h0v13.81c-14.76-1.02-18.25-7.71-16.46-13.06Zm10.71,7.31c2.17-.38,.73-5.68,.51-6.43,0-.02-.03,0-.03,0-.02,.45-.22,2.47-2.49,4.25-1.71,1.33-.32,2.57,2.01,2.17h0Z"/>
  <path class="cls-26" d="M132.2,160.35h-.26c-6.21,.26-11.48,.8-15.95,1.53,1.29-3.87,5.36-7.04,9.92-6.81,1.81,.08,3.18,.74,4.22,1.75,.95,.93,1.62,2.14,2.08,3.52h-.01Z"/>
  <path d="M127.22,162.77c.21,.75,1.66,6.06-.51,6.43-2.33,.4-3.71-.84-2.01-2.17,2.27-1.78,2.47-3.8,2.49-4.25,0-.02,.02-.02,.03,0h0Z"/>
  <path class="cls-22" d="M109.27,200.42c.11,.65,5.33,34.2-9.27,53.12l9.27-53.12Z"/>
  <path class="cls-21" d="M115.33,165.7s2.78,7.21,16.4,9.93c-.27,.04-14.99,1.8-19.21-9.61-3.33,.63-8.88,2.48-12.51,7.98-5.48,8.3,1.25,18.08,1.25,18.08l-3.7-3.48s-10.92-11.05-2.22-18.23c13.94-10.18,20.23-7.16,20.23-7.16l-.23,2.5h0Z"/>
  <path class="cls-25" d="M37.52,55.43c.7-.82,1.55-1.59,2.55-2.31-.96,.73-1.81,1.49-2.55,2.31Z"/>
  <path class="cls-23" d="M93.3,252.82l-2.56-5.88,2.56-4.74-4.35-3.26,4.35-6.37-2.56-4,5.79-4.84-4.61-6.43,3.72-6.01-3.72-3.47,3.72-9.96h-6.69l-1.61-6.63-9.36-3.85v-7.22l-7.15-2.26-6.18,.66v-9.27l9.72,2.79,4.93-7.98s25.98,34.77,29.24,35.76,1.73,49.6-10.03,53.74c-6.86,2.41-5.2-.76-5.2-.76"/>
  <path class="cls-23" d="M188.1,251.18l2.28-5.88-2.28-4.74,3.87-3.26-3.87-6.37,2.28-4-5.16-4.84,4.11-6.43-3.31-6.01,3.31-3.47-3.31-9.96h5.96l1.43-6.63,8.34-3.85,3.87-.78,2.49-8.71-7.54,2.96-3.95-7.78s-19.19,25.79-22.09,26.79,2.38,51.83,8.94,53.74l4.63-.76"/>
  <path class="cls-17" d="M174.14,198.58c-28.86,23.74-53.72,10.52-64.87,1.85"/>
  <path class="cls-17" d="M132.2,160.35c.24-.02,.47-.02,.7-.03"/>
  <path class="cls-17" d="M132.45,174.95s24.23-.28,15.67-14.53c-.73-1.22-1.7-2.54-2.95-3.97-3.47-2.5-6.4-1.78-8.57-.25-1.79,1.26-3.06,3.08-3.69,4.12-.31,.49-.46,.81-.46,.81"/>
  <path class="cls-17" d="M132.45,174.95s1.6-7.96,0-13.81h0c-.08-.27-.15-.54-.25-.79-.46-1.38-1.13-2.6-2.08-3.52-1.04-1.01-2.41-1.67-4.22-1.75-4.56-.22-8.62,2.94-9.92,6.81-1.79,5.34,1.69,12.04,16.46,13.06h0Z"/>
  <path class="cls-17" d="M122.26,194.56c10.19-1.51,9.83-16.59,10.15-19.19,0-.08,.11-.08,.12,0,.44,2.25-1.67,12.4,8.68,19.19"/>
  <path class="cls-9" d="M127.19,162.78s.02-.02,.03,0c.21,.75,1.66,6.06-.51,6.43-2.33,.4-3.71-.84-2.01-2.17,2.27-1.78,2.47-3.8,2.49-4.25h0Z"/>
  <path class="cls-17" d="M137.95,163.15s-.02-.02-.03,0c-.21,.76-1.65,6.06,.51,6.43,2.34,.41,3.71-.83,2.01-2.17-2.27-1.77-2.48-3.8-2.5-4.25h.01Z"/>
  <path class="cls-12" d="M4.12,13.77s-17.68,51.16,31.1,67.54"/>
  <path class="cls-12" d="M35.76,57.82s-2.7-25.78-31.59-44.01c-.02,0-.04-.02-.05-.03"/>
  <path class="cls-12" d="M135.86,10.73c-5.9,5.91-45.09,11-50.02,.29-4.92-10.7,27.14-15.67,50.02-.29Z"/>
  <path class="cls-12" d="M135.86,10.73s41.63,16.18,43.17-1.75c1.34-15.61-37.26-4.16-43.17,1.75Z"/>
  <path class="cls-24" d="M93.95,254.42s-58.08-.09-66.65,61.64c-8.57,61.73-10.29,170.97-10.29,170.97l-6.7-5.88s-3.53-123.23,6.44-172.73c2.79-13.87,8.67-24.98,13.76-31.02,25.07-29.73,63.43-22.97,63.43-22.97h.01Z"/>
  <path class="cls-24" d="M182.07,251.93s45.86,0,54.43,61.73c8.57,61.73,19.43,178.63,19.43,178.63l9.5-4.04s-13.91-129.24-20.06-180.02c-2.79-13.87-3.39-22.48-8.48-28.52-16.79-25.95-54.81-27.77-54.81-27.77h0Z"/>
  <line class="cls-12" x1="135.86" y1="10.73" x2="135.86" y2="15.36"/>
  <path class="cls-12" d="M100.01,253.54c14.59-18.91,9.37-52.47,9.27-53.12"/>
  <path class="cls-24" d="M57.77,326.9s9.73,87.07,6.88,115.61h-9.56l2.68-115.61h0Z"/>
  <line class="cls-12" x1="109.27" y1="200.41" x2="109.27" y2="200.42"/>
  <path class="cls-24" d="M203.34,329.32s-3.23,69.82,1.22,109.11c-.84,8.51-31.16,15.48-38.63,21.32,25.47-5.64,46.5-18.67,46.5-18.67l-9.09-111.76h0Z"/>
  <path class="cls-12" d="M174.14,198.57h0c-.07,.57-3.25,29.17,7.93,52.37-19.97,10.42-49.94,12.59-82.06,2.6l-21.54,.49c-10.38,.23-20.18,2.95-28.8,7.59-18.12,9.76-31.06,28.04-33.29,49.74-5.02,48.93-11.36,155.14-5.55,171.68,0,0,9.77,12.65,39.66,0,4.09-1.73,3.8-40.53,3.8-40.53"/>
  <path class="cls-12" d="M57.91,324.3c-.87,13.02-3.63,118.21-3.63,118.21,0,0,18.27,23.4,77.31,21.08s80.84-22.51,80.84-22.51c.41-16.5-9.09-112.44-9.09-112.44"/>
  <path class="cls-12" d="M152.76,299.08l.18-5.96c.1-3.25,2.79-5.8,6.03-5.75l6.89,.12,8.9,.16,4.95,.09c3.23,.05,5.83,2.69,5.83,5.93v21.78c0,3.35-2.76,6.03-6.11,5.93l-7.25-.21-5.71-.18-8.43-.25c-3.27-.1-5.84-2.83-5.74-6.11l.3-9.85,.17-5.69h0Z"/>
  <polyline class="cls-16" points="165.57 281.62 165.87 287.48 166.15 292.76"/>
  <polyline class="cls-16" points="176.28 280.31 174.77 287.64 174.26 290.15"/>
  <polyline class="cls-16" points="179.46 298.55 185.54 299.12 191.91 299.7"/>
  <polyline class="cls-16" points="193.06 306.07 185.54 306.07 184.1 306.07"/>
  <path class="cls-16" d="M172.66,316.05s-.22,2.4-.48,5.1c-.34,3.45-.74,7.4-.82,7.49"/>
  <path class="cls-16" d="M166.15,317.5c.11,.34,.22,1.8,.32,3.48,.15,2.69,.26,5.93,.26,5.93"/>
  <polyline class="cls-16" points="155.3 305.49 152.59 304.77 149.36 303.9"/>
  <path class="cls-16" d="M156.31,299.7s-1.59-.28-3.55-.63c-3.06-.54-7.04-1.2-7.3-1.11"/>
  <path class="cls-12" d="M49.67,261.62l-16-6.04c-.34-.13-.41-.59-.12-.81l10.34-8.02c.27-.21,.24-.62-.06-.78l-10.49-5.74c-.27-.15-.32-.51-.11-.74l5.67-6.13c.19-.2,.16-.52-.05-.69l-11.36-8.71c-.3-.23-.22-.69,.12-.81l9.13-3.3c.26-.09,.38-.39,.27-.64l-5.57-12.19c-.14-.31,.09-.66,.43-.66h7.86c.33,0,.56-.33,.44-.64l-5.49-14.89c-.14-.38,.24-.75,.61-.6l10.56,4.08c.31,.11,.64-.11,.64-.43l.26-12.31c0-.33,.34-.55,.65-.42l8.19,3.49c.31,.13,.66-.09,.66-.43v-8.14c0-.35,.37-.58,.68-.42l7.66,4c.31,.16,.69-.07,.69-.42v-9.27c0-.34,.34-.57,.64-.44l8.45,3.49c.25,.1,.53-.02,.62-.27l3.61-9.63"/>
  <path class="cls-12" d="M228.9,269.94l11.54-5.05c.35-.15,.41-.64,.08-.86l-5.92-4.1c-.35-.24-.26-.77,.15-.88l12.73-3.48c.41-.11,.5-.67,.13-.9l-7.11-4.46c-.31-.2-.31-.67,.02-.85l7.33-4.12c.33-.18,.34-.64,.03-.84l-5.8-3.82c-.27-.18-.3-.57-.05-.79l5.84-5.05c.3-.25,.19-.74-.19-.85l-5.58-1.61c-.3-.08-.44-.42-.31-.7l4.95-10.12c.15-.31-.05-.67-.4-.71l-7-.73c-.31-.04-.52-.35-.41-.66l2.96-8.59c.11-.32-.13-.66-.47-.66h-5.95c-.31,0-.54-.28-.49-.58l1.53-8.55c.05-.31-.18-.58-.49-.58h-9.27c-.29,0-.52-.26-.49-.55l1.29-11.25c.05-.36-.3-.64-.64-.53l-9.91,3.22c-.39,.12-.75-.25-.62-.63l2.59-7.79c.12-.37-.2-.73-.57-.64l-11.07,2.51c-.37,.08-.69-.25-.59-.61l2.11-7.81c.11-.41-.31-.76-.68-.58l-6.98,3.2c-.25,.11-.54,0-.66-.25l-3.32-7.3"/>
  <polyline class="cls-12" points="212.44 236.76 218.97 229.81 207.89 229.81"/>
  <polyline class="cls-12" points="205.62 212.38 203.34 202.9 195.53 202.9"/>
  <polyline class="cls-12" points="89.6 196.82 72.24 191.03 73.98 202.9"/>
  <path class="cls-12" d="M70.79,222.57c-.87,0-10.42,4.4-10.42,4.4l2.32,7.47"/>
  <path class="cls-13" d="M161.8,308.53c-.52,1.55,2.6,6.23,5.2,4.89,2.6-1.36,7.59,1.45,8.73-.52,1.15-1.98,.73-9.04-2.91-6.86s-4.57-.93-7.38-1.04c-2.8-.11-3.64,3.54-3.64,3.54h0Z"/>
  <circle class="cls-13" cx="161.74" cy="300.56" r="2.6"/>
  <path class="cls-13" d="M171.62,298.55c0,1.43-1.16,2.6-2.6,2.6s-2.6-1.17-2.6-2.6,1.16-2.61,2.6-2.61,2.6,1.17,2.6,2.61Z"/>
  <circle class="cls-13" cx="176.86" cy="301.73" r="2.6"/>
  <path class="cls-14" d="M135.93,284.73s-1.66,8-.93,12.73c.73,4.73,3.59,3.35,3.05,10.66s-3.27,13.04-2.7,16.6,1.05,8.89,1.11,10.67"/>
  <path class="cls-14" d="M144.63,285.6s1.58,8.09,1.58,12.74-2.17,7.34,0,11.73,6.16,13.08,5.35,19.6c-.81,6.52-2.77,9.68-2.28,10.67"/>
  <path class="cls-15" d="M104.12,258.33s13.55,20.16,37.3,18.77c23.76-1.38,37.64-21.93,37.64-21.93"/>
  <g>
    <path class="cls-20" d="M101.44,260.11c-3.78,0-6.85-3.07-6.85-6.85s3.08-6.85,6.85-6.85,6.85,3.08,6.85,6.85-3.07,6.85-6.85,6.85Z"/>
    <path class="cls-8" d="M101.44,247.41c3.23,0,5.85,2.63,5.85,5.85s-2.63,5.85-5.85,5.85-5.85-2.63-5.85-5.85,2.63-5.85,5.85-5.85m0-2c-4.34,0-7.85,3.52-7.85,7.85s3.52,7.85,7.85,7.85,7.85-3.52,7.85-7.85-3.52-7.85-7.85-7.85h0Z"/>
  </g>
  <g>
    <path class="cls-20" d="M141.42,287.98c-3.78,0-6.85-3.07-6.85-6.85s3.08-6.85,6.85-6.85,6.85,3.08,6.85,6.85-3.08,6.85-6.85,6.85Z"/>
    <path class="cls-8" d="M141.42,275.27c3.23,0,5.85,2.63,5.85,5.85s-2.63,5.85-5.85,5.85-5.85-2.63-5.85-5.85,2.63-5.85,5.85-5.85m0-2c-4.34,0-7.85,3.52-7.85,7.85s3.52,7.85,7.85,7.85,7.85-3.52,7.85-7.85-3.52-7.85-7.85-7.85h0Z"/>
  </g>
  <path class="cls-11" d="M195.92,702.39c3.84,3.25,28.99,21.62,15.02,29.82-1.07-4.67-5.16-8.1-10-8.1h-46.64c-.66-8.96,12.14-19.65,12.14-19.65l4.22-.31c4.43,.93,9.1-.31,13.8-.97l5.12-.35c.73,0,1.45,.07,2.18,.17,1.56,.24,2.91,0,4.12-.62h.04Z"/>
  <path class="cls-11" d="M200.94,724.12c4.84,0,8.93,3.43,10,8.1-4.22,2.53-12.11,4.08-25.29,3.98-23.56-.17-30.86-5.67-31.35-12.07h46.64Z"/>
  <path class="cls-11" d="M115.48,700.7c3.22,4.88,10.97,15.15,9.03,23.42h-21.9c-5.67,0-10.28,4.67-10.28,10.41v1.63c-42.55-.52-13.29-34.84-13.29-34.84,7.92,4.67,27.82,3.94,36.4-.62h.04Z"/>
  <path class="cls-8" d="M102.61,724.12h21.9c-1.56,6.44-9.1,11.69-29.51,12.07-.93,0-1.8,.03-2.66-.03v-1.63c0-5.74,4.6-10.41,10.28-10.41h0Z"/>
  <path class="cls-6" d="M282.24,103.34c2.89,2.02-13.29,3.87-35.88-9.93,4.43-13.58,3.17-22.01,.95-29.43-2.78-9.26-15.59-14.79-31.41-18.06,0,0,24.71-19.36,40.37,8.81,9.87,17.76,16.46,30.67,19.97,37.78,.02,.03,.03,.05,.04,.08,1.14,2.48,2.14,4.56,3.01,6.23t.02,.03c1.29,2.49,2.27,4.02,2.94,4.49h-.01Z"/>
  <path class="cls-10" d="M279.26,98.74c-.25-.51-1.23-2.6-2.98-6.14,0-.03-.02-.05-.04-.08-4.26-9.24-10.47-23.9-18.84-42.31,1.64,3.15,3.28,6.55,4.95,10.03,8.32,17.32,16.19,36.72,16.91,38.5Z"/>
  <path class="cls-10" d="M276.24,92.51c-3.51-7.11-10.1-20.02-19.97-37.78-15.66-28.16-40.37-8.81-40.37-8.81h-.05c-2.77-.57-5.64-1.08-8.56-1.52,.41-.41,15.21-14.49,34.36-11.19h0c2.79,.87,5.47,2.36,7.93,4.69,2.67,3.05,5.24,7.37,7.81,12.3,8.36,18.41,14.58,33.06,18.84,42.31h.01Z"/>
  <path class="cls-6" d="M256.19,47.55c.41,.9,.81,1.78,1.21,2.66-2.57-4.93-5.14-9.25-7.81-12.3,2.46,2.32,4.7,5.47,6.6,9.64Z"/>
  <path class="cls-6" d="M131.24,129.24H56.91l-.34-.57c-.15-.24-.28-.47-.43-.71-.16-.27-.31-.54-.47-.8-.19-.33-.38-.66-.57-.98-.22-.39-.45-.77-.67-1.16-8.74-15.08-16.05-30.45-19.19-43.7-1.87-7.86-2.27-14.97-.62-20.82,.26-.93,.65-1.83,1.15-2.68,.47-.83,1.06-1.63,1.75-2.38h0c.74-.82,1.59-1.59,2.55-2.31l.45-.33c4.04-2.93,9.79-5.17,16.5-6.86,12.68-3.2,28.84-4.47,43.58-4.85,.06,.04,.15,.08,.25,.15-.03,.07-.05,.15-.08,.21,0,0,.13,.1,.38,.29,1.48,1.09,7.18,5.11,15.07,8.38,1.33,.56,2.73,1.09,4.19,1.59v.26h.77c4.73,1.55,9.99,2.66,15.44,2.75,7.27,.11,12.79-1.03,17.02-2.75,.75-.31,1.45-.63,2.13-.96,5.51-2.78,8.49-6.55,10.41-9.28h0c.05-.08,.11-.16,.15-.25,11.95,.15,26.53,.82,40.04,2.79,.3,.05,.6,.09,.9,.14h0l8.56,1.52h.05c15.82,3.27,28.63,8.81,31.41,18.06,2.22,7.41,3.48,15.84-.95,29.43-2.15,6.62-5.66,14.47-11.07,24.03,0,0,0,.02-.02,.04-2.04,3.61-4.36,7.46-6.97,11.58-.05,.06-.08,.12-.12,.18h-.63c-.28-.06-4.27-.9-7.89,0h-88.4Zm72.52-14.41c1.49-11.9-15.13-11.95-23.16-12.76-8.05-.81-31.69,2.04-25.94,11.26,11.27,18.09,17.27,14.2,30.64,15.31,11.49,.28,17.18-3.6,18.45-13.81h.01Zm-85.87-1.43c1.5-11.9-15.13-11.95-23.16-12.76-8.05-.8-31.69,2.05-25.94,11.26,11.27,18.09,17.27,14.2,30.65,15.31,11.48,.28,17.17-3.6,18.45-13.81Z"/>
  <path class="cls-10" d="M249.59,37.91c-2.47-2.34-5.15-3.83-7.93-4.69,2.8,.08,5.41,1.82,7.93,4.69Z"/>
  <path class="cls-6" d="M241.65,33.21c-19.14-3.3-33.94,10.78-34.36,11.19h0c-.3-.05-.6-.09-.9-.14,0,0,19.29-16,35.27-11.05h-.01Z"/>
  <path class="cls-25" d="M235.28,117.48c-3.41,6.33-6.33,10.67-6.97,11.58,2.61-4.12,4.92-7.97,6.97-11.58Z"/>
  <path class="cls-3" d="M227.56,129.24h.02s-35.31,50.66-40.84,55.28l-1.02-5.59s29.03-40.56,33.97-49.69h7.87Z"/>
  <path class="cls-3" d="M227.56,129.24h-7.89c3.62-.9,7.6-.06,7.89,0Z"/>
  <path class="cls-10" d="M215.86,45.92l-8.56-1.52c2.93,.44,5.79,.94,8.56,1.52Z"/>
  <path class="cls-8" d="M183.65,110.53c13.1,3.04,0,17.46,0,17.46h-.05c-.09,0-.41,0-.9-.03h-.18c-1.57-.09-3.23-.27-4.98-.52-.96-.14-1.91-.26-2.83-.34-.09,0-.18,0-.28-.03-2.37-9.24-3.87-19.54,9.22-16.54h0Z"/>
  <path class="cls-2" d="M165.42,41.73c-1.92,2.73-4.9,6.5-10.41,9.28-.67,.34-1.38,.66-2.13,.96-.02-.25-.05-.5-.08-.74-.33-3.45-.91-6.65-1.68-9.59,3.98-.05,8.87-.04,14.3,.09Z"/>
  <path class="cls-1" d="M152.88,51.97h.77c-4.23,1.72-9.75,2.86-17.02,2.75-5.45-.08-10.71-1.19-15.44-2.75h31.69Z"/>
  <path class="cls-1" d="M152.8,51.23c.03,.25,.05,.49,.08,.74h-31.71c-.25-.08-.51-.17-.76-.26,0-.57,.02-1.16,.06-1.76,.11-.44,.13-1,.11-1.62,.22-2.68,.64-5.36,1.12-7.58,10.35,.07,17.49,1.09,18.45,1.13h.34c.96-.05,4.12-1.08,9.9-1.13,.77,2.95,2,6.92,2.42,10.48h0Z"/>
  <path class="cls-18" d="M135.85,15.36s-.02,.02-.07,.06c-17.86,1.32-29.17,8.84-34.89,25.64h-.32c5.81-17.06,16.93-24.56,35.27-25.71h.01Z"/>
  <path class="cls-18" d="M135.79,15.43c-.9,.81-10.57,9.79-14.09,25.32-.03,.11-.05,.21-.08,.32-1.68,1.38-1.15,4.57-1.05,6.98-.05,.64-.09,1.29-.11,1.96-.17,.67-.55,1.08-1.31,1.06-.87-.18-1.85-.52-2.92-.96-5.72-2.37-13.53-7.72-15.38-8.88,.02-.05,.03-.11,.05-.16,5.72-16.8,17.03-24.33,34.89-25.64h0Z"/>
  <path class="cls-1" d="M121.17,51.97h-.77v-.26c.25,.09,.51,.18,.76,.26h0Z"/>
  <path class="cls-18" d="M120.58,48.33c.02,.62,0,1.18-.11,1.62,.02-.54,.06-1.08,.11-1.62Z"/>
  <path class="cls-18" d="M120.57,48.05v.28c-.05,.54-.08,1.09-.11,1.62,0,.02,0,.05-.02,.06,.02-.67,.06-1.32,.11-1.96h.02Z"/>
  <path class="cls-18" d="M100.9,41.07s-.04,.11-.05,.16c-.1-.07-.18-.11-.25-.15h.3Z"/>
  <path class="cls-8" d="M98.92,108.99c13.1,3.13,0,18,0,18h-.05c-.09,0-.41,0-.9-.03h-.18c-1.56-.09-3.22-.27-4.98-.54-.97-.15-1.91-.26-2.84-.35-.09,0-.18,0-.28-.03-2.37-9.53-3.87-20.15,9.23-17.05Z"/>
  <path class="cls-6" d="M39.1,25.12h-.03c-.13-.02-.26-.04-.38-.06,14.11,.12,18.34,20.87,18.34,20.87-6.72,1.69-12.46,3.93-16.5,6.86-.15,.11-.31,.21-.45,.33-1,.73-1.85,1.49-2.55,2.31h0c-.69,.75-1.28,1.55-1.75,2.38,0,0-2.5-23.95-28.55-42.01,2.37,1.19,5.65,2.76,9.37,4.25-3.12-.96-5.37-1.67-5.37-1.67,0,0,9.17,9.82,22.34,11.48,13.16,1.65,17.99,16.06,17.99,16.06h3.84c-3.74-16.42-11.16-20.03-16.27-20.8h-.03Z"/>
  <path class="cls-3" d="M55.37,45.92h-3.84s-4.82-14.4-17.99-16.06c-13.16-1.66-22.34-11.48-22.34-11.48,0,0,2.25,.71,5.37,1.67,5.33,2.14,11.56,4.16,17.29,4.79l.18,.02c.15,.02,.28,.03,.43,.04,1.08,.11,2.14,.15,3.17,.15,.48,0,.96,.02,1.42,.06h.03c5.11,.77,12.53,4.39,16.27,20.8h.01Z"/>
  <path class="cls-3" d="M38.69,25.06c.12,.02,.25,.04,.38,.06-.46-.05-.93-.07-1.42-.06-1.03,0-2.09-.04-3.17-.15h.82c1.06,.1,2.11,.15,3.12,.14h.27Z"/>
  <path class="cls-3" d="M38.69,25.06h-.27c-1.01,0-2.05-.04-3.12-.14,.87,0,2.03-.03,3.38,.14h0Z"/>
  <path class="cls-6" d="M35.3,24.92h-.82c-.15,0-.28-.02-.43-.04l-.18-.02c-.46-.08-1.05-.2-1.75-.36,1.07,.19,2.14,.34,3.18,.43h0Z"/>
  <path class="cls-3" d="M32.12,24.49c.7,.16,1.29,.28,1.75,.36-5.73-.64-11.96-2.65-17.29-4.79,1.13,.35,2.36,.73,3.64,1.12,.02,0,.03,0,.05,.02,3.78,1.39,7.86,2.61,11.79,3.29h.06Z"/>
  <path class="cls-3" d="M20.27,21.19c4.2,1.26,8.88,2.61,11.79,3.29-3.94-.68-8.01-1.91-11.79-3.29Z"/>
  <path class="cls-6" d="M20.22,21.18c-1.29-.39-2.52-.77-3.64-1.12-3.72-1.49-7.01-3.06-9.37-4.25-.96-.67-1.94-1.32-2.96-1.97,1,.56,7.79,4.32,15.98,7.34h-.01Z"/>
  <path class="cls-3" d="M91.96,174.18S41.38,107.8,41.59,64.64c.06-12.41,40.75-19.56,39.33-21.3-4.43-5.43-36.89,9.13-35.67,6.68-14.43,7.19-16.73,25.13,3.65,65.03,20.38,39.9,40.71,62.85,40.71,62.85l2.36-3.72h-.01Z"/>
  <path class="cls-3" d="M226.98,129.24s38.14-52.13,15.77-72.21c-16.31-10.67-54.58-16.12-54.76-14.7-.19,1.58,54.04,13.52,53.78,28.75-.52,30.68-17.13,50.07-22.1,58.17"/>
  <path class="cls-24" d="M64.65,442.51s4.42,9.86,35.09,18.25c-7.74,0-34.25-5.55-44.62-19.68"/>
  <path class="cls-12" d="M212.43,441.08s2.99,38.9,4.54,45.09c0,0,17.16,12,48.65,4.26l-20.38-185.99c-1.12-13.42-7.11-25.57-16.34-34.5-6.83-6.64-15.44-11.5-25.16-13.82l-21.67-5.18"/>
  <g>
    <path class="cls-20" d="M184.27,259.9c-3.78,0-6.85-3.08-6.85-6.85s3.08-6.85,6.85-6.85,6.85,3.07,6.85,6.85-3.08,6.85-6.85,6.85Z"/>
    <path class="cls-8" d="M184.27,247.19c3.23,0,5.85,2.63,5.85,5.85s-2.63,5.85-5.85,5.85-5.85-2.63-5.85-5.85,2.63-5.85,5.85-5.85m0-2c-4.34,0-7.85,3.52-7.85,7.85s3.52,7.85,7.85,7.85,7.85-3.52,7.85-7.85-3.52-7.85-7.85-7.85h0Z"/>
  </g>
  <path class="cls-17" d="M148.11,160.42c29.71,1.66,41.01,14.12,36.71,27.51"/>
  <path class="cls-17" d="M91.89,180.86s-6.07-14.01,24.1-18.97"/>
  <path class="cls-3" d="M55.81,91.18s76.43-45.67,74.11,63.63c3.25-15.35-.27-74.24-24.78-78.34s-40.86,3.59-49.33,14.71Z"/>
  <path class="cls-3" d="M212.47,90.05s-76.43-45.67-74.11,63.63c-3.25-15.35,.27-74.24,24.78-78.34s40.86,3.59,49.33,14.71Z"/>
  <g>
    <path class="cls-17" d="M110.03,200.41c-4.02-3.12-6.26-5.66-6.26-5.66,0,0-4.46-5.29-11.13-13.9q-4.45-5.74,0-.02c-3.84-4.94-8.4-10.97-13.25-17.7-7.29-10.12-15.26-21.83-22.48-33.9l-.34-.57c-.15-.24-.28-.47-.43-.71-.16-.27-.31-.54-.47-.8-.19-.33-.38-.66-.57-.98-.22-.39-.45-.77-.67-1.16-8.74-15.08-16.05-30.45-19.19-43.7-1.87-7.86-2.27-14.97-.62-20.82,.26-.93,.65-1.83,1.15-2.68,.47-.83,1.06-1.63,1.75-2.38h0c.74-.82,1.59-1.59,2.55-2.31l.45-.33c4.04-2.93,9.79-5.17,16.5-6.86,12.68-3.2,28.84-4.47,43.58-4.85h.3"/>
    <path class="cls-17" d="M166.35,41.47c11.95,.15,26.53,.82,40.04,2.79,.3,.05,.6,.09,.9,.14h0c2.93,.44,5.79,.94,8.56,1.52h.05c15.82,3.27,28.63,8.81,31.41,18.06,2.22,7.41,3.48,15.84-.95,29.43-2.15,6.62-5.66,14.47-11.07,24.03,0,0,0,.02-.02,.04-2.04,3.61-4.36,7.46-6.97,11.58-.05,.06-.08,.12-.12,.18-7.43,11.7-17.27,25.56-30.21,42.17-3.75,4.82-7.76,9.87-12.05,15.16-2.16,2.66-4.39,5.39-6.68,8.19-1.45,1.37-3.67,2.64-5.1,3.81"/>
    <path class="cls-17" d="M130.89,156.83s1.37-12.41,.34-27.59c-.57-8.43-1.88-17.71-4.56-26.2-3.64-11.49-9.81-21.51-20.1-26-4.11-1.8-8.89-2.7-14.43-2.47-1.94,.09-3.8,.24-5.54,.44-11.1,1.25-18.39,4.48-23.15,7.86-6.85,4.85-8.41,10.01-8.41,10.01"/>
    <path class="cls-17" d="M137.35,156.19s-1.33-12.06-.39-26.95c.67-10.51,2.47-22.4,6.66-32.47,2.83-6.79,6.75-12.76,12.15-16.88,5.25-4.02,11.91-6.3,20.32-5.94,.87,.04,1.72,.09,2.54,.16,6.54,.49,11.87,1.64,16.21,3.14,5.69,1.97,9.68,4.53,12.44,6.97,4.74,4.17,5.9,8.02,5.9,8.02"/>
    <path class="cls-12" d="M56.26,45.92s-3.99-19.58-17.16-20.8h-.03c-.46-.05-.93-.07-1.42-.06-1.03,0-2.09-.04-3.17-.15-.15,0-.28-.02-.43-.04l-.18-.02c-5.73-.64-11.96-2.65-17.29-4.79-3.72-1.49-7.01-3.06-9.37-4.25-2.13-1.07-3.51-1.85-3.8-2.01"/>
    <path class="cls-12" d="M206.38,44.26s19.29-16,35.27-11.05h0c2.79,.87,5.47,2.36,7.93,4.69,2.46,2.32,4.7,5.47,6.6,9.64,.41,.9,.81,1.78,1.21,2.66,8.36,18.41,14.58,33.06,18.84,42.31,.02,.03,.03,.05,.04,.08,1.14,2.48,2.14,4.56,3.01,6.23t.02,.03c1.29,2.49,2.27,4.02,2.94,4.49,2.89,2.02-13.29,3.87-35.88-9.93"/>
    <path class="cls-12" d="M121.18,51.97c4.73,1.55,9.99,2.66,15.44,2.75,7.27,.11,12.79-1.03,17.02-2.75,.75-.31,1.45-.63,2.13-.96,5.51-2.78,8.49-6.55,10.41-9.28h0c.05-.08,.11-.16,.15-.25,2.85-5.41-11.55-27.24-29.73-26.1-.23,.02-.47,.03-.7,.05h-.14c-17.86,1.32-29.17,8.84-34.89,25.64-.02,.05-.04,.11-.05,.16-.03,.07-.05,.15-.08,.21,0,0,.13,.1,.38,.29,1.48,1.09,7.18,5.11,15.07,8.38,1.33,.56,2.73,1.09,4.19,1.59,.25,.09,.51,.18,.76,.26"/>
    <path class="cls-12" d="M152.88,51.97c-.02-.25-.05-.5-.08-.74-.33-3.45-.91-6.65-1.68-9.59l-.02-.11c-4.35-16.82-14.26-25.34-15.18-26.1-.05-.04-.07-.05-.07-.05,0,0-.02,.02-.07,.06-.9,.81-10.57,9.79-14.09,25.32-.03,.11-.05,.21-.08,.32-.03,.12-.06,.25-.08,.38-.44,2.08-.78,4.29-.96,6.6-.05,.64-.09,1.29-.11,1.96-.03,.56-.05,1.13-.05,1.7v.26"/>
    <path class="cls-17" d="M99.44,127.23c-13.38-1.11-19.38,2.77-30.65-15.31-5.74-9.21,17.89-12.07,25.94-11.26,8.02,.81,24.66,.87,23.16,12.76-1.27,10.21-6.97,14.09-18.45,13.81Z"/>
    <path class="cls-17" d="M185.3,128.66c-13.37-1.11-19.37,2.77-30.64-15.31-5.74-9.21,17.89-12.07,25.94-11.26,8.02,.8,24.65,.86,23.16,12.76-1.27,10.21-6.97,14.09-18.45,13.81h-.01Z"/>
  </g>
</svg>