<?xml version="1.0" encoding="UTF-8"?>
<svg id="Capa_1" data-name="Capa 1" xmlns="http://www.w3.org/2000/svg" width="46" height="58" viewBox="0 0 46 58">
  <defs>
    <style>
      .cls-1 {
        fill: #354856;
      }

      .cls-2 {
        fill: #4a667c;
      }

      .cls-3 {
        fill: #d9ebff;
      }

      .cls-4 {
        fill: #546a79;
      }

      .cls-5 {
        fill: #38454f;
      }

      .cls-6 {
        fill: #99c2de;
      }
    </style>
  </defs>
  <rect class="cls-2" width="46" height="58"/>
  <path class="cls-6" d="M35.9,14H10.09c-.06,.07-.12,.04-.16,0L.39,.39c-.14-.14-.04-.39,.16-.39H45.45c.2,0,.31,.25,.16,.39l-9.54,13.61s-.1,.07-.16,0Z"/>
  <path class="cls-6" d="M35.9,50H10.09c-.06-.07-.12-.04-.16,0L.39,57.61c-.14,.14-.04,.39,.16,.39H45.45c.2,0,.31-.25,.16-.39l-9.54-7.61s-.1-.07-.16,0Z"/>
  <path class="cls-5" d="M26,29c-.41,0-.8-.26-.94-.67l-6-17c-.18-.52,.09-1.09,.61-1.28,.52-.18,1.09,.09,1.28,.61l6,17c.18,.52-.09,1.09-.61,1.28-.11,.04-.22,.06-.33,.06Z"/>
  <path class="cls-4" d="M20,29c-.11,0-.22-.02-.33-.06-.52-.18-.79-.76-.61-1.28l6-17c.18-.52,.75-.79,1.28-.61,.52,.19,.79,.76,.61,1.28l-6,17c-.15,.41-.53,.67-.94,.67Z"/>
  <circle class="cls-1" cx="23" cy="11" r="4"/>
  <circle class="cls-1" cx="23" cy="29" r="4"/>
  <circle class="cls-3" cx="23" cy="11" r="2"/>
  <circle class="cls-3" cx="23" cy="29" r="2"/>
</svg>