<?xml version="1.0" encoding="UTF-8"?>
<svg id="Layer_1" data-name="Layer 1" xmlns="http://www.w3.org/2000/svg" width="916.53" height="810.53" viewBox="0 0 916.53 810.53">
  <defs>
    <style>
      .cls-1 {
        fill: #5c84a0;
      }

      .cls-2 {
        fill: #24313b;
      }

      .cls-3 {
        fill: #fff;
      }

      .cls-4 {
        fill: #354856;
      }

      .cls-5 {
        fill: #161e24;
      }
    </style>
  </defs>
  <rect class="cls-2" x="290.45" y="582.54" width="335.61" height="189.37"/>
  <polygon class="cls-5" points="290.45 615.29 490.14 615.29 290.45 716.51 290.45 615.29"/>
  <path class="cls-4" d="M670.56,810.53H245.96c-16.47,0-29.93-13.48-29.93-29.93h0c0-16.47,13.48-29.93,29.93-29.93h424.58c16.47,0,29.93,13.48,29.93,29.93h0c.03,16.45-13.45,29.93-29.9,29.93Z"/>
  <path class="cls-4" d="M849.81,615.29H66.71c-30.76,0-55.94-25.17-55.94-55.94V55.94C10.77,25.17,35.95,0,66.71,0H849.81c30.76,0,55.94,25.17,55.94,55.94v503.42c0,30.76-25.17,55.94-55.94,55.94Z"/>
  <rect class="cls-1" x="49.17" y="38.34" width="818.34" height="538.6"/>
  <g>
    <path class="cls-3" d="M219.95,300.88l160.51-77.89v30.46l-127.31,59.26v.67l127.31,59.6v30.15l-160.51-77.86v-24.39Z"/>
    <path class="cls-3" d="M403.94,416.69l82.64-245.5h29.11l-82.64,245.5h-29.11Z"/>
    <path class="cls-3" d="M696.57,325.94l-160.51,77.22v-30.15l129.38-59.6v-.67l-129.38-59.6v-30.15l160.51,77.22v25.73Z"/>
  </g>
</svg>