<?xml version="1.0" encoding="utf-8"?>
<!-- Generator: Adobe Illustrator 26.3.1, SVG Export Plug-In . SVG Version: 6.00 Build 0)  -->
<svg version="1.1" id="Layer_3" xmlns="http://www.w3.org/2000/svg" xmlns:xlink="http://www.w3.org/1999/xlink" x="0px" y="0px"
	 viewBox="0 0 101 103" style="enable-background:new 0 0 101 103;" xml:space="preserve">
<style type="text/css">
	.st0{fill:#FA80A8;}
</style>
<path class="st0" d="M49.4,14.6c21.2,0,38.4,17.2,38.4,38.4S70.5,91.4,49.4,91.4S11,74.2,11,53S28.2,14.6,49.4,14.6 M49.4,8.6
	C24.9,8.6,5,28.5,5,53s19.9,44.4,44.4,44.4S93.8,77.5,93.8,53S73.9,8.6,49.4,8.6L49.4,8.6z"/>
<path class="st0" d="M49.4,33.7c10.6,0,19.3,8.6,19.3,19.3S60,72.3,49.4,72.3S30.1,63.6,30.1,53S38.7,33.7,49.4,33.7 M49.4,27.7
	c-14,0-25.3,11.3-25.3,25.3s11.3,25.3,25.3,25.3S74.7,67,74.7,53S63.3,27.7,49.4,27.7L49.4,27.7z"/>
<path class="st0" d="M49.4,51.8c0.7,0,1.2,0.5,1.2,1.2s-0.5,1.2-1.2,1.2s-1.2-0.5-1.2-1.2S48.7,51.8,49.4,51.8 M49.4,45.8
	c-4,0-7.2,3.2-7.2,7.2s3.2,7.2,7.2,7.2s7.2-3.2,7.2-7.2S53.4,45.8,49.4,45.8L49.4,45.8z"/>
</svg>
