<?xml version="1.0" encoding="UTF-8"?>
<svg id="Layer_2" data-name="Layer 2" xmlns="http://www.w3.org/2000/svg" width="916.53" height="810.53" viewBox="0 0 916.53 810.53">
  <defs>
    <style>
      .cls-1 {
        fill: #5c84a0;
      }

      .cls-2 {
        fill: #9dd8d7;
      }

      .cls-3 {
        fill: #354856;
      }

      .cls-4 {
        fill: #99c2de;
      }
    </style>
  </defs>
  <rect class="cls-4" x="825.03" y="56.98" width="73.24" height="656.09"/>
  <rect class="cls-4" x="18.26" y="56.98" width="73.24" height="656.09"/>
  <polygon class="cls-1" points="91.5 18.26 91.5 56.98 91.5 713.06 91.5 751.78 825.03 751.78 825.03 713.06 825.03 56.98 825.03 18.26 91.5 18.26"/>
  <g>
    <path class="cls-2" d="M251.64,482.81c-55.27,22.89-85.84,75.8-68.29,118.17s76.58,58.16,131.85,35.27c55.27-22.89,85.84-75.8,68.29-118.17-17.55-42.37-76.58-58.16-131.85-35.27Z"/>
    <path class="cls-2" d="M601.34,435.32c-55.27,22.89-85.84,75.8-68.29,118.17,17.55,42.37,76.58,58.16,131.85,35.27,55.27-22.89,85.84-75.8,68.29-118.17-17.55-42.37-76.58-58.16-131.85-35.27Z"/>
    <polygon class="cls-2" points="738.14 203.33 388.44 251.7 388.44 168.63 738.14 120.26 738.14 203.33"/>
  </g>
  <path class="cls-3" d="M898.28,38.72h-54.99V18.26c0-10.08-8.17-18.26-18.26-18.26H91.5c-10.08,0-18.26,8.17-18.26,18.26v20.46H18.26C8.17,38.72,0,46.89,0,56.98V713.07c0,10.08,8.17,18.26,18.26,18.26h54.99v20.46c0,10.08,8.17,18.26,18.26,18.26H825.03c10.08,0,18.26-8.17,18.26-18.26v-20.46h54.99c10.08,0,18.26-8.17,18.26-18.26V56.98c0-10.08-8.17-18.26-18.26-18.26ZM36.52,694.81V75.24h36.73V694.81H36.52Zm770.26,38.72H109.76V36.52H806.77V733.53Zm73.24-38.72h-36.73V75.24h36.73V694.81Z"/>
  <path class="cls-3" d="M370.18,473.83c-9.7-6.83-21.04-12.09-33.76-15.49-28.76-7.7-61.35-4.99-91.77,7.61-30.42,12.6-55.38,33.73-70.27,59.51-15.81,27.35-18.61,56.65-7.9,82.51,10.71,25.86,33.42,44.6,63.93,52.76,10.74,2.87,22.01,4.3,33.5,4.3,19.29,0,39.21-4.01,58.27-11.91,30.42-12.6,55.38-33.73,70.27-59.51,10-17.3,14.78-35.37,14.24-52.87V267.6l313.19-43.32v202.05c-9.7-6.83-21.04-12.09-33.76-15.49-28.76-7.7-61.35-4.99-91.77,7.61-30.42,12.6-55.38,33.73-70.27,59.51-15.81,27.35-18.61,56.65-7.9,82.51,10.71,25.86,33.42,44.6,63.93,52.76,10.74,2.87,22.01,4.3,33.5,4.3,19.29,0,39.21-4.01,58.27-11.91,30.42-12.6,55.38-33.73,70.27-59.51,9.99-17.29,14.77-35.36,14.24-52.85V120.26c0-5.28-2.28-10.3-6.26-13.77s-9.27-5.04-14.49-4.32l-349.7,48.37c-9.03,1.25-15.76,8.97-15.76,18.09V473.83Zm-9.34,101.51c-10.9,18.86-29.59,34.5-52.63,44.05-15.06,6.24-30.39,9.2-44.68,9.2-29.25,0-54.13-12.42-63.31-34.59-6.27-15.13-4.21-32.98,5.78-50.27,10.9-18.86,29.59-34.5,52.63-44.05,15.06-6.24,30.39-9.2,44.68-9.2,29.25,0,54.13,12.42,63.31,34.59,6.27,15.13,4.21,32.98-5.78,50.27Zm45.86-344.59v-46.2l313.19-43.32v46.2l-313.19,43.32Zm303.85,297.1c-10.9,18.86-29.59,34.5-52.63,44.05-45.87,19-94.32,7.61-107.99-25.39-6.27-15.13-4.21-32.98,5.78-50.27,10.9-18.86,29.59-34.5,52.63-44.05,45.88-19,94.32-7.61,107.99,25.39,6.27,15.12,4.21,32.98-5.78,50.27Z"/>
  <path class="cls-3" d="M173.45,410.58V171.41c0-10.08-8.17-18.26-18.26-18.26s-18.26,8.17-18.26,18.26v239.18c0,10.08,8.17,18.26,18.26,18.26s18.26-8.17,18.26-18.26Z"/>
  <path class="cls-3" d="M155.19,125.76c10.08,0,18.26-8.17,18.26-18.26v-25.56c0-10.08-8.17-18.26-18.26-18.26s-18.26,8.17-18.26,18.26v25.56c0,10.08,8.17,18.26,18.26,18.26Z"/>
</svg>