<?xml version="1.0" encoding="UTF-8"?>
<svg id="Layer_3" data-name="Layer 3" xmlns="http://www.w3.org/2000/svg" width="947.34" height="856.37" viewBox="0 0 947.34 856.37">
  <defs>
    <style>
      .cls-1 {
        fill: #9dd8d7;
      }

      .cls-2 {
        fill: #354856;
      }

      .cls-3 {
        fill: #4a667c;
      }

      .cls-4 {
        fill: #99c2de;
      }
    </style>
  </defs>
  <path class="cls-2" d="M411.15,.11c267.43,9.41,503.52,248.38,507.54,513.74,1.22,80.26-41.74,111.21-111.56,73.89-30.04-16.06-48.89-.98-70.02,7.23-183.44,71.22-366.09,144.49-549.41,216-26.15,10.2-53.91,30.94-82.65,2.51-28.97-28.66-7.71-56.39,2.44-82.46,69.71-179.11,140.69-357.74,211.36-536.48,13.19-33.36,25.97-61.12,1.69-100.97C289.33,42.35,336.11-2.53,411.15,.11Z"/>
  <path class="cls-4" d="M216.26,735.12c.76,26.88-46.44,68.84-77.54,62.75-23.42-4.58-19.54-19.86-12.87-36.75,48.81-123.7,97.32-247.51,145.55-371.44,6.93-17.82,16.64-23.15,36.64-20.13,52.59,7.95,90.02-15.86,108.26-64.66,16.68-44.64-1.14-81.24-37.39-108.64-13.73-10.38-24.67-16.43-16.14-37.74,7.93-19.82,20.45-20.17,37.32-20.99,180.36-8.73,383.64,192.97,380.96,376.91-.36,24.63-8.04,36.59-30.54,45.18-102.83,39.23-205.65,78.57-307.24,120.85-28.25,11.76-38.69,3.69-54.62-18.76-26.14-36.82-64.58-52.35-109.13-34.6-45.64,18.19-67.39,53.34-63.26,108.01Z"/>
  <path class="cls-3" d="M890.33,505.75c2.16,30.91,3.79,66.11-35.74,70.49-40.71,4.51-43.69-29.08-46.73-61.02-21.91-230.11-174.89-383.16-404.94-404.79-32.33-3.04-65.28-6.34-60.72-46.82,4.45-39.52,39.63-36.94,70.53-35.78,246.66,9.28,468.14,230.71,477.6,477.92Z"/>
  <path class="cls-1" d="M279.15,745.07c-30.32,5.42-37.54-10.41-35.66-30.72,3.61-38.88,26.38-62.4,65.24-65.53,29.92-2.41,64.98,15.35,61.16,40.47-7.21,47.49-64.34,34.69-90.74,55.78Z"/>
  <path class="cls-1" d="M394.9,273.09c-3.07,38.63-23.36,63.48-62.26,70.1-15.36,2.61-39.58,1.1-31.78-21.58,12.7-36.94,13.61-86.91,52.51-103.21,20.14-8.44,36.85,27.59,41.53,54.69Z"/>
  <path class="cls-2" d="M712.19,457.98c-1.68,51.35-46.86,94.49-98.14,93.68-54.07-.85-98.88-49.51-95.17-103.34,3.53-51.19,50.38-92.89,101.39-90.23,51.28,2.67,93.59,48.65,91.92,99.89Z"/>
  <path class="cls-2" d="M478.39,470.71c-7.66,41.18-30.19,68.44-73.6,66.2-39.1-2.02-64.29-27.16-64.62-66.79-.35-42.95,25.52-69.57,68.42-69.68,43.4-.11,64.64,28.3,69.79,70.27Z"/>
  <path class="cls-1" d="M684.74,453.9c-6.2,41.06-28.06,69.41-71.31,68.36-39.16-.95-64.98-26.73-65.33-66.11-.38-42.91,26.39-69.34,69.31-68.75,39.7,.55,60.44,27.64,67.33,66.5Z"/>
  <path class="cls-1" d="M411.47,509.36c-24.1-.89-40.49-13.42-42.7-36.27-2.6-26.84,13.4-43.99,40.36-44.18,23.47-.16,38.41,15.2,39.25,38.76,.85,23.98-14.52,36.77-36.91,41.7Z"/>
</svg>