<?xml version="1.0" encoding="UTF-8"?>
<svg id="Layer_2" data-name="Layer 2" xmlns="http://www.w3.org/2000/svg" width="740.62" height="972.92" viewBox="0 0 740.62 972.92">
  <defs>
    <style>
      .cls-1 {
        fill: #5c84a0;
      }

      .cls-2, .cls-3 {
        fill: #fff;
      }

      .cls-3, .cls-4 {
        stroke: #354856;
        stroke-miterlimit: 10;
        stroke-width: 4px;
      }

      .cls-5 {
        fill: #d7e2e9;
      }

      .cls-6 {
        fill: #354856;
      }

      .cls-7 {
        fill: #a9bdc9;
      }

      .cls-8 {
        fill: #4a667c;
      }

      .cls-9 {
        fill: #5c7689;
      }

      .cls-10 {
        fill: #92a3ad;
      }

      .cls-11 {
        fill: #577b96;
      }

      .cls-12 {
        fill: #c8d2d9;
      }

      .cls-13 {
        fill: #b3bcc2;
      }

      .cls-4 {
        fill: none;
      }
    </style>
  </defs>
  <path class="cls-5" d="M311.76,493.3c0-14.38-110.5-173.2-112.86-176.61,27.15,32.57,69.37,62.66,131.82,59.67,117.62-5.62,116.9-93.47,115.33-112.69,2.52,23.06,2.6,41.22,1.58,55.17-.02,.39-.06,.76-.09,1.14-.06,.7-.11,1.38-.17,2.05-.06,.69-.12,1.36-.18,2.01l-.04,.33c-.04,.44-.09,.87-.13,1.3-.55,5.17-1.26,9.64-2.01,13.45-.06,.32-.12,.62-.18,.94-.28,1.4-.58,2.71-.87,3.91-.06,.28-.12,.55-.2,.81-1.05,4.3-2.12,7.41-2.91,9.47-.09,.22-.17,.44-.26,.64-.5,1.25-.87,2.01-1.04,2.34,2.77-4.65,57.34-99.07,8.7-198.31,20.1,23.39,48.1,62.58,52.52,139.71,19.08-40.36,4.78-112.2-7.23-149.44,4.43,10.73,12.68,33.86,16.72,65.54,23.38,41.89,21.21,138.26,21.21,138.26l-31.33-12s15.16,72.69,18.68,88.49c3.52,15.8,41.37,48.05,43.59,91.04,2.22,42.98-110.94,87.43-110.94,87.43l-19.01,5.81-34.42-11.61c-.09-.28-.16-.56-.24-.86-.49-1.75-1.02-3.64-1.57-5.61-.4-1.46-.82-2.98-1.25-4.53-.18-.67-.38-1.35-.56-2.02-.96-3.45-1.95-7.08-2.94-10.77l-.92-3.42c-.07-.28-.15-.56-.23-.86l-.59-2.2c-.24-.93-.5-1.86-.73-2.78-.21-.78-.42-1.56-.61-2.33-2.84-10.78-5.45-21.19-7.02-28.56,2.6,13.9-8.29,54.37-17.78,60.05,0-23.39-47.75-139.69-47.75-139.69,0,0,4.14,24.64-4.08,34.76Z"/>
  <path class="cls-12" d="M427.13,357.4l-7.43,25.91s58.96-25.65,64.64-117.12-51.84,14.61-51.84,14.61l-5.37,76.6Z"/>
  <path class="cls-12" d="M522.06,247.75s4.63,63.49-20.03,80.56c-8.49-43.6-23.45-76.29-23.45-76.29v-36.09l54.74-16.61-11.26,48.42Z"/>
  <path class="cls-12" d="M491.37,142.73c6.76,2.33,54.13,23,66.59,146.85,.45,11.26,1.21,21.45,2.23,30.69,.04,.34,.07,.69,.11,1.04,6.25,55.84,21.36,76.22,29.28,83.23l-15.62-7.88-31.37-17.15s.13,.54,.38,1.53l-3.03-1.53s4.96,14.53,11.4,30.95c5.52,17.55,12.7,36.71,18.63,40.16,.11,.06,.22,.13,.33,.21,1.64,2.41,3.17,4.15,4.52,5.01,6.7,9.92,14.29,30.78,18.2,48.68,1.91,10.68,2.76,20.65,1.82,26.98-.07,.23-.15,.45-.22,.66l.1,.05c-.32,1.8-.8,3.27-1.45,4.32-.11,.16-.22,.32-.34,.49-.01,.02-.02,.04-.04,.06-.58,.73-1.35,1.78-2.27,3.09-18.07,24.05-55.66,57.99-123.38,75.13-3.15,4.94-6.3,10.2-7.85,12.84-7.76,2.13-18.33,4.53-29.69,5.72l-10.03-9.7-12.58-6.22c-3.4-1.68-5.94-4.73-6.97-8.38-.4-1.43-.88-3.1-1.41-4.96-.22-.8-.45-1.63-.7-2.49l34.42,11.61,19.01-5.81s113.15-44.46,110.94-87.43c-2.22-42.99-40.07-75.24-43.59-91.04-3.52-15.8-18.68-88.49-18.68-88.49l31.33,12s2.17-96.38-21.21-138.26c-4.04-31.67-12.28-54.81-16.72-65.54-.73-2.28-1.46-4.43-2.17-6.44Z"/>
  <path class="cls-1" d="M395.9,657.2h-.01s-37.7,51.76-50.79,107.25c-12.49,15.14-86.12,43.66-134.48,49.6-48.35,5.95-46.47-54.31-115.68-74.22-69.22-19.9-82.5-77.75-82.5-77.75l12.7-17.04,23.33-31.32,.06-.18c21.21,6.82,47.74,9.82,66.94-6.77-14.13,.21-32.65-.12-52.97-10.36h0c15.05-14.81,64.14-35.74,75.55-40.49,1.53-.64,2.39-.98,2.39-.98,0,0,15.17,26.54,36.98,91.02,21.81,64.47,66.38,67.32,97.67,68.27,31.04,.93,117.8-60.85,119.14-61.8,.48,1.6,1.03,3.2,1.65,4.76Z"/>
  <path class="cls-11" d="M18.8,653.55s61.95,81.84,72.93,85.32c-43.2-16.1-85.54-57.82-72.93-85.32Z"/>
  <path class="cls-11" d="M148.14,772.5s36.88,22.33,47.31,22.33,61.16-16.12,73.25-16.12,78.47-22.26,78.47-22.26c0,0-6.16,17.55-16.36,18.48-10.2,.93-118.78,48.4-135.36,39.53s-42.47-29.2-47.31-41.96Z"/>
  <path class="cls-11" d="M134.97,557.22c-5.75-2.45,12.26,107.85,49.1,137.1,16.3,12.94,11.41,29.39,31.78,31.29s49.27,15.9,52.83,10.79,16.46-15.54,22.34-15.54,20.37-2.82,31.62-6.63c11.24-3.8,25.55-10.44,32.14-15.18s22.67-12.69,22.67-12.69l16.8-30.92s-50.48,37.8-97.45,53.78c-16.96,5.77-28.77,2.82-45.79,3.2-34.33,.77-72.25-43.7-80.91-88.26-5.55-28.55-27.13-64.44-27.13-64.44l-8-2.5Z"/>
  <path class="cls-8" d="M161.31,480.98c8.85,22.44,21.18,50.89-20.86,73.96,0,0-.86,.34-2.39,.98l-.05-.11c-6.44-2.24-12.43-4.07-17.98-5.51,0,0,38.75-35.82,41.27-69.32Z"/>
  <path class="cls-5" d="M70.62,545.93c4.24-.7,9.77-1.15,16.74-.89,6.63,.26,14.56,1.18,23.89,3.17,2.79,.59,5.72,1.29,8.78,2.09,5.55,1.45,11.54,3.27,17.98,5.51l.05,.11c-11.41,4.75-60.5,25.68-75.55,40.48h0c-11.02-5.55-22.57-14.02-34.24-26.92,5.23-5.29,12.01-10.39,20.71-15.1,3.25-1.76,6.77-3.48,10.57-5.13,0,0,3.43-2.05,11.07-3.32Z"/>
  <path class="cls-8" d="M62.51,596.41c20.32,10.24,38.84,10.57,52.97,10.36-19.2,16.6-45.73,13.59-66.94,6.77-19.99-6.42-35.27-16.23-35.27-16.23h-.01c-2.39-10.62,2.67-23.74,15-27.84h.01c11.67,12.9,23.22,21.37,34.24,26.93Z"/>
  <path class="cls-8" d="M85.15,429.45c29.39,16.75,44.65,75.98,26.11,118.75-9.33-2-17.27-2.91-23.89-3.17v-.07s21.48-48.81-2.22-115.51Z"/>
  <path class="cls-8" d="M70.62,545.93c-7.64,1.27-11.07,3.32-11.07,3.32-3.8,1.65-7.32,3.37-10.57,5.13,0,0-61.49-24.41-23.26-116.07,0,20.23,6.38,80.91,44.9,107.62Z"/>
  <path class="cls-13" d="M48.54,613.55l-.06,.18-23.33,31.32s-16.41-22.4-11.89-47.73h.01s15.28,9.81,35.27,16.23Z"/>
  <path class="cls-4" d="M594.64,407.97s-.01,0-.02-.01l-2.08-1.14-49.93-27.3s16.01,64.47,27.39,71.11c8.48,4.95,21.15,39.34,24.73,62.84,1.22,8.06,1.37,14.83-.07,18.7"/>
  <path class="cls-4" d="M472.2,624.16s-4.96,1.85-12.79,3.98c-7.76,2.13-18.33,4.53-29.69,5.72-4.95,.51-10.04,.8-15.11,.72h-.13"/>
  <path class="cls-2" d="M407.12,617.94l12.58,6.22s-2.22,4.35-5.08,10.42c-5.17,10.92-12.47,27.42-12.84,34.13-2.4-3.7-4.36-7.57-5.88-11.52-.62-1.57-1.18-3.16-1.65-4.76-4.76-16.01-2.94-33.18,4.49-47.83,.53,1.86,1,3.53,1.41,4.96,1.03,3.65,3.56,6.7,6.97,8.38Z"/>
  <path class="cls-1" d="M563.21,919.98c-130.03,98.59-261.5,23.71-261.5,23.71,0,0,48.29-61.63,39.76-130.84-1.94-15.65-.21-32.19,3.63-48.4,13.09-55.49,50.79-107.25,50.79-107.25h.01c1.52,3.96,3.48,7.83,5.88,11.52,.37-6.71,7.67-23.21,12.84-34.13,5.07,.07,10.17-.21,15.11-.72,11.35-1.19,21.92-3.59,29.69-5.72,7.83-2.13,12.79-3.98,12.79-3.98l26.04,46.77s104.94-42.99,109.99-154.88c0,0,11.06,22.76,12,36.03,.96,13.28,44.57,47.41,44.57,108.1s26.55,260.75,71.11,295.84c-25.6,4.74-41.71-15.17-59.73-12.33-18.02,2.85-85.34,18.97-113.78-13.26,0-2.94,.29-6.45,.81-10.45Z"/>
  <path class="cls-4" d="M398.74,604.61c-7.43,14.65-9.26,31.82-4.49,47.83,.48,1.6,1.03,3.2,1.65,4.76,1.52,3.96,3.48,7.83,5.88,11.52,.37-6.71,7.67-23.21,12.84-34.13,2.87-6.07,5.08-10.42,5.08-10.42"/>
  <path class="cls-11" d="M698.14,948.39s-21.96-109-27.65-128.91c-5.69-19.91-16.12-166-16.12-172.13s6.54-17.97,6.54-17.97c0,0,8.63,148.38,26.64,194.84,7.69,44.19,19.55,107.52,44.86,128.67-25.64-.85-34.28-4.5-34.28-4.5Z"/>
  <path class="cls-11" d="M309.48,932.43s174.74,21.7,214.78-35.19c40.04-56.89,49.03-175.53,49.74-186.74,1.4,39.11,14.42,104.99,.94,148.71-13.49,43.72,.1,62.46-32.35,77.29s-138.87,60.68-234.94,10.24c1.83-8.72,1.83-14.3,1.83-14.3Z"/>
  <path class="cls-4" d="M608.23,516.06s11.06,22.76,12,36.03c.96,13.28,44.57,47.41,44.57,108.1s26.55,260.75,71.11,295.84c-25.6,4.74-41.71-15.17-59.73-12.33-18.02,2.85-85.34,18.97-113.78-13.26,0-2.94,.29-6.45,.81-10.45,4.65-35.81,27.35-109.7,16.25-149.8-12.32-44.57-.94-99.24-.94-99.24"/>
  <path class="cls-4" d="M395.89,657.2s-37.7,51.76-50.79,107.25c-3.83,16.22-5.56,32.75-3.63,48.4,8.54,69.21-39.76,130.84-39.76,130.84,0,0,131.46,74.88,261.5-23.71"/>
  <path class="cls-4" d="M394.26,652.42h-.01c-1.35,.97-88.11,62.74-119.14,61.81-31.29-.94-75.86-3.8-97.67-68.27-21.8-64.48-36.98-91.02-36.98-91.02,0,0-.86,.34-2.39,.98-11.41,4.75-60.5,25.68-75.55,40.48"/>
  <path class="cls-4" d="M48.48,613.73l-23.33,31.32-12.7,17.04s13.28,57.84,82.5,77.75c69.21,19.91,67.32,80.17,115.68,74.22,48.35-5.94,121.98-34.46,134.48-49.6"/>
  <path class="cls-4" d="M28.26,569.48h.01c5.23-5.29,12.01-10.39,20.71-15.1,3.25-1.76,6.77-3.48,10.57-5.13,0,0,3.43-2.05,11.07-3.32,4.24-.7,9.77-1.15,16.74-.89,6.63,.26,14.56,1.18,23.89,3.17,2.79,.59,5.72,1.29,8.78,2.09,5.55,1.45,11.54,3.27,17.98,5.51"/>
  <path class="cls-4" d="M13.25,597.32c-2.39-10.62,2.67-23.74,15-27.84"/>
  <path class="cls-4" d="M25.14,645.05s-16.41-22.4-11.89-47.73"/>
  <path class="cls-4" d="M13.26,597.32s15.28,9.81,35.27,16.23c21.21,6.82,47.74,9.82,66.94-6.77-14.13,.21-32.65-.12-52.97-10.36-11.02-5.56-22.57-14.04-34.24-26.93"/>
  <path class="cls-4" d="M48.98,554.38s-61.49-24.41-23.26-116.07c0,20.23,6.38,80.91,44.9,107.62,0,.01,.01,.01,.01,.01"/>
  <path class="cls-4" d="M87.36,544.96s21.48-48.81-2.22-115.51c29.39,16.75,44.65,75.98,26.11,118.75"/>
  <path class="cls-4" d="M120.04,550.3s38.75-35.82,41.27-69.32c8.85,22.44,21.18,50.89-20.86,73.96"/>
  <path class="cls-5" d="M594.74,532.22l1.14,.49c-.8,1.24-1.65,2.51-2.58,3.83,.65-1.05,1.13-2.52,1.45-4.32Z"/>
  <path class="cls-12" d="M594.64,532.17c.07-.21,.15-.43,.22-.66-.04,.24-.07,.48-.12,.71l-.1-.05Z"/>
  <path class="cls-12" d="M592.95,537.04c.12-.17,.23-.33,.34-.49-.11,.17-.22,.34-.34,.49Z"/>
  <path class="cls-5" d="M590.65,540.18c.92-1.31,1.69-2.35,2.27-3.09-.72,1-1.47,2.03-2.27,3.09Z"/>
  <path class="cls-2" d="M289.15,267.14c-2.29,2.71-5.76,3.52-7.75,1.82-2.01-1.69-1.78-5.25,.51-7.95,2.28-2.69,5.74-3.52,7.75-1.82,2,1.69,1.76,5.25-.51,7.95Z"/>
  <path class="cls-2" d="M336.65,270.4c-3.14,1.63-6.65,1.07-7.86-1.25-1.2-2.33,.37-5.54,3.5-7.16s6.65-1.07,7.86,1.26c1.2,2.33-.36,5.54-3.5,7.15Z"/>
  <path class="cls-12" d="M560.3,321.31c6.48,53.51,29.28,83.23,29.28,83.23-7.92-7.02-23.04-27.4-29.28-83.23Z"/>
  <path class="cls-12" d="M557.96,289.58c.97,9.59,1.71,19.82,2.23,30.69-1.02-9.25-1.78-19.44-2.23-30.69Z"/>
  <path class="cls-8" d="M493.54,149.17c-1.8-4.38-2.98-6.7-2.98-6.7,0,0,.28,.07,.81,.26,.71,2.01,1.43,4.16,2.17,6.44Z"/>
  <path class="cls-5" d="M557.96,289.58c-12.46-123.85-59.83-144.52-66.59-146.85-.27-.76-.54-1.52-.81-2.24,0,0,64.25,25.47,67.1,140.31,.07,3,.17,5.93,.29,8.78Z"/>
  <path class="cls-5" d="M447.38,322.03c-.06,.69-.12,1.35-.18,2.01,.06-.65,.12-1.32,.18-2.01Z"/>
  <path class="cls-5" d="M443.76,344.78c.07-.26,.13-.53,.2-.81-.06,.28-.12,.55-.2,.81Z"/>
  <path class="cls-5" d="M390.33,574.06l-.59-2.2,.59,2.2Z"/>
  <path class="cls-6" d="M389.4,183.5c-6.34,.48-8.02-9.42-8.02-9.42,6.14,.5,11.62,1.8,16.06,3.2,0,0-1.69,5.74-8.03,6.22Z"/>
  <path class="cls-5" d="M388.39,566.75c.2,.77,.4,1.54,.61,2.33-.21-.78-.42-1.56-.61-2.33Z"/>
  <path class="cls-5" d="M387.76,190.86c-15.36,1.46-16.89-16.78-16.89-16.78,3.65-.31,7.18-.27,10.51,0,0,0,1.68,9.9,8.02,9.42s8.03-6.22,8.03-6.22c1.58,.5,3.03,1.02,4.32,1.52,0,0,1.35,10.61-14,12.06Z"/>
  <path class="cls-9" d="M370.87,174.08c-6.38,.54-13.13,2.13-19.91,5.36-2.22-16.74,22.13-27.18,28.45-28.12,6.32-.96,25.6,14.86,29.39,30.66,0,0-2.61-1.49-7.04-3.18-1.3-.5-2.74-1.02-4.32-1.52-4.43-1.4-9.92-2.69-16.06-3.2-3.33-.27-6.86-.31-10.51,0Z"/>
  <path class="cls-2" d="M385.09,203.79c-24.65,7.58-34.13-24.35-34.13-24.35,6.79-3.23,13.53-4.83,19.91-5.36,0,0,1.53,18.24,16.89,16.78,15.35-1.46,14-12.06,14-12.06,4.43,1.69,7.04,3.18,7.04,3.18,3.78,15.8,.94,14.22-23.71,21.81Z"/>
  <path class="cls-8" d="M493.54,149.17c12,37.24,26.31,109.09,7.23,149.44-4.42-77.12-32.42-116.31-52.52-139.71,0,0-44.18-104.26-146.55-31-.04,.01-.05,.02-.05,.02t-.01-.02c-1.1-1.8-64.04-102.85-158.65,56.29-12.64,12-31.6,57.51-38.56,94.82-17.7-67.01,42.99-153.61,42.99-153.61l-24.03,20.22c48.05-103.66,141.61-77.12,141.61-77.12,0,0-8.22-32.86-25.92-49.3,51.19,4.42,73.33,51.83,73.33,51.83,0,0,5.06-51.21-5.06-64.48,18.96,10.75,44.25,48.68,54.99,70.17,41.09-53.73,92.3-32.24,113.15-27.81-12.64,0-51.21,22.13-67.01,34.77,89.12-18.96,122,58.16,122,58.16,0,0-22.76-3.8-42.35-7.59,.77,1.84,1.59,3.92,2.44,6.23,.27,.72,.54,1.48,.81,2.24-.53-.18-.81-.26-.81-.26,0,0,1.18,2.31,2.98,6.7Z"/>
  <path class="cls-6" d="M295.76,216.37c1.69-1.97,4.62-2.23,6.61-.59,8.9,7.3,32.16,26.79,44.1,40.94-.72-.76-4.92-4.87-10.46-4.69-6.11,.2-14.7,6.59-23.94,8.24-9.25,1.67-13.28-11.84-22.76-12.53s-20.62,6.01-20.62,6.01h-.01c6.64-12.92,20.85-30.12,27.08-37.39Z"/>
  <path class="cls-6" d="M360.13,284.71c-27.5,40.15-69.86,36.66-71.12,34.44s-3.48-24.04-3.48-24.04c14.4,4.83,51.45,10.47,74.6-10.4Z"/>
  <path class="cls-6" d="M260.21,181.98c-16.3,1.35-12.61-12.08-12.61-12.08l.12-.4c8.29,2.47,13.15,5.21,13.15,5.21-.27,2.85-.17,5.18-.65,7.27h-.01Z"/>
  <path class="cls-5" d="M260.22,181.98c-.61,2.65-2.14,4.94-6.53,7.51h-.01c-26.61-.42-18.84-22.87-18.84-22.87,4.87,.75,9.21,1.79,12.87,2.88l-.12,.4s-3.69,13.42,12.61,12.08h.01Z"/>
  <path class="cls-12" d="M224.77,357.22s73.1,44.5,121.82,35.58c55.19-10.11,73.64-26.45,98.42-53.68,24.78-27.23,7.5-58.31,7.5-58.31l-22.78-2.84-49.06,46.07-76.99,22.61-65.25-14.44-22.58-8.17-6.45,4.27,15.37,28.9Z"/>
  <path class="cls-2" d="M234.85,166.62s-7.78,22.45,18.84,22.87c-4.05,2.36-10.52,4.96-20.94,8.29-30.66,9.8-31.92-30.02-31.92-30.02,12.81-2.85,24.46-2.58,34.02-1.14Z"/>
  <path class="cls-7" d="M283.74,276.59c21.54,5.94,55.79,6.67,69.11-4.92,2.66-2.27-.43-7.89-6.26-14.82,0,0-.04-.04-.11-.12-11.94-14.16-35.2-33.64-44.1-40.94-2-1.64-4.92-1.38-6.61,.59-6.23,7.27-20.44,24.47-27.08,37.39-2.11,4.1-3.45,7.76-3.54,10.56-.16,4.81,7.54,9.23,18.59,12.27Zm17.91-148.66s.01-.01,.05-.02c1.87-.66,54.12-18.84,94.12,8.9-103.06-.6-50.55,64.13-50.55,64.13l7.26,8.22c7.21,8.16,89.77,35.33,91.07,35.75h0c.8,5.24,1.47,10.26,2.05,15.08,.12,1.1,.24,2.2,.37,3.28l.04,.4c1.57,19.22,2.29,107.07-115.33,112.69-62.45,2.99-104.67-27.1-131.82-59.67-.04-.04-.05-.06-.05-.06-20.4-24.47-32.28-50.34-37.87-64.59h0c.17-.62,12.32-39.77,89.77-46.66,78.08-6.96-10.61-83.37-26.64-78.19,23.12-18.03,51.35-27.21,77.51,.72t.01,.02Zm-12.64,191.22c1.26,2.22,43.63,5.71,71.12-34.44-23.15,20.87-60.2,15.22-74.6,10.4,0,0,2.22,21.82,3.48,24.04Z"/>
  <path class="cls-9" d="M260.87,174.71s-4.86-2.73-13.15-5.21c-3.66-1.09-8-2.13-12.87-2.88-9.57-1.45-21.21-1.71-34.02,1.14,.64-9.8,17.07-28.77,31.61-27.19s29.39,24.34,28.44,34.13Z"/>
  <path class="cls-10" d="M243.74,131.09s38.31-8.22,55.38,0c2.51-13.91-30.42-29.28-30.42-29.28l-43.93,8.35-7.2,6.29,26.17,14.64Z"/>
  <path class="cls-10" d="M443.96,258.31s-95.84-31.18-103.4-46.84c-14.25-29.49-8.66-32.67-8.66-32.67l16.93,26.16,40.58,10.98,33.14,10.92,29.97,10.7-8.55,20.75Z"/>
  <path class="cls-10" d="M164.74,261.05s35.93-43.15,87.6-46.02c51.68-2.87,26.17-44.2,26.17-44.2l-18.3,25.69-26.42,8.44-45.92,6.51-23.13,19.39v30.19Z"/>
  <path class="cls-10" d="M264.04,268.27s26.99,42.18,89.78,8.33c-.03-6.75-3.81-8.33-3.81-8.33l-28.45,12.54-7.27-4.21-23.27-2.37-18.77-8.03-8.22,2.08Z"/>
  <path class="cls-9" d="M281.4,268.96c2,1.69,5.46,.88,7.75-1.82,2.28-2.69,2.51-6.26,.51-7.95-2.01-1.69-5.47-.87-7.75,1.82-2.29,2.69-2.52,6.26-.51,7.95Zm47.39,.18c1.21,2.31,4.73,2.88,7.86,1.25,3.15-1.62,4.7-4.83,3.5-7.15-1.21-2.33-4.73-2.89-7.86-1.26s-4.7,4.84-3.5,7.16Zm-39.46-21.4c9.48,.69,13.51,14.19,22.76,12.53,9.25-1.65,17.83-8.05,23.94-8.24,5.54-.18,9.74,3.93,10.46,4.69,.07,.09,.11,.12,.11,.12,5.83,6.93,8.92,12.55,6.26,14.82-13.33,11.6-47.57,10.86-69.11,4.92-11.05-3.04-18.75-7.46-18.59-12.27,.09-2.79,1.43-6.45,3.54-10.56h.01s11.15-6.7,20.62-6.01Z"/>
  <path class="cls-10" d="M301.69,128.88s60.54,6.92,64.54,10.1,16.64,0,16.64,0l16.75-4.34-24.02-17.13-37.3-1.05-36.62,12.43Z"/>
  <path class="cls-2" d="M301.69,127.91c102.38-73.26,146.55,31,146.55,31,48.65,99.24-5.93,193.66-8.7,198.31,.17-.33,.54-1.09,1.04-2.34,.09-.2,.17-.42,.26-.64,.8-2.06,1.86-5.17,2.91-9.47,.07-.26,.13-.53,.2-.81,.29-1.2,.59-2.51,.87-3.91,.06-.31,.12-.62,.18-.94,.75-3.81,1.46-8.28,2.01-13.45,.05-.43,.09-.86,.13-1.3l.04-.33c.06-.66,.12-1.32,.18-2.01,.06-.66,.11-1.35,.17-2.05,.02-.37,.06-.76,.09-1.14,1.02-13.95,.94-32.11-1.58-55.17l-.04-.4c-.18-2.11-.37-3.28-.37-3.28-.58-4.81-1.25-9.83-2.05-15.06h0c-1.91-12.66-4.51-26.55-7.95-41.76-7.69-33.97-22.63-54.4-39.84-66.34-40-27.74-92.25-9.57-94.12-8.9Z"/>
  <path class="cls-12" d="M484.06,217.32s-5.72,57.76-20.88,76.21c5.17-22.21,8.08-97.09-10.67-125.34,23.4,31.14,31.55,49.12,31.55,49.12Z"/>
  <path class="cls-2" d="M142.98,184.2c94.61-159.14,157.55-58.09,158.65-56.29-26.16-27.94-54.39-18.75-77.51-.72-17.12,13.35-31.44,31.54-40.05,43.1-9.08,12.19-18.79,40.82-27.03,70.67-10.12,36.67-18,75.17-19.74,87.36-18.33-41.09,3.8-131.48,5.68-144.12Z"/>
  <g>
    <path class="cls-4" d="M446.05,263.67c2.52,23.06,2.6,41.22,1.58,55.17-.02,.38-.06,.77-.09,1.14-.06,.7-.11,1.38-.17,2.05-.06,.69-.12,1.36-.18,2.01l-.04,.33c-.05,.44-.09,.87-.13,1.3-.55,5.17-1.26,9.64-2.01,13.45-.06,.32-.12,.64-.18,.94-.28,1.4-.58,2.71-.87,3.91-.06,.28-.12,.55-.2,.81-1.05,4.3-2.12,7.41-2.91,9.47-.09,.22-.17,.44-.26,.64-.5,1.25-.87,2.01-1.04,2.34"/>
    <path class="cls-4" d="M198.9,316.69c27.15,32.57,69.37,62.66,131.82,59.67,117.62-5.62,116.9-93.47,115.33-112.69l-.04-.4c-.18-2.11-.37-3.28-.37-3.28"/>
    <path class="cls-4" d="M160.98,252.04c5.58,14.26,17.46,40.12,37.87,64.59"/>
    <path class="cls-4" d="M346.48,256.73c-11.94-14.16-35.2-33.64-44.1-40.94-2-1.64-4.92-1.38-6.61,.59-6.23,7.27-20.44,24.47-27.08,37.39-2.11,4.1-3.45,7.76-3.54,10.56-.16,4.81,7.54,9.23,18.59,12.27,21.54,5.94,55.79,6.67,69.11-4.92,2.66-2.27-.43-7.89-6.26-14.82"/>
    <path class="cls-4" d="M268.7,253.76s11.15-6.7,20.62-6.01,13.51,14.19,22.76,12.53c9.25-1.65,17.83-8.05,23.94-8.24,5.54-.18,9.74,3.93,10.46,4.69,.07,.09,.11,.12,.11,.12"/>
    <path class="cls-4" d="M289.15,267.14c-2.29,2.71-5.76,3.52-7.75,1.82-2.01-1.69-1.78-5.25,.51-7.95,2.28-2.69,5.74-3.52,7.75-1.82,2,1.69,1.76,5.25-.51,7.95Z"/>
    <path class="cls-4" d="M332.29,261.98c3.14-1.63,6.65-1.07,7.86,1.26,1.2,2.33-.36,5.54-3.5,7.15-3.14,1.63-6.65,1.07-7.86-1.25-1.2-2.33,.37-5.54,3.5-7.16Z"/>
    <path class="cls-4" d="M283.74,276.59s-4.21,11.9-4.21,15.38c0,.66,2.22,1.87,6,3.14,14.4,4.83,51.45,10.47,74.6-10.4,2.62-2.35,5.06-5.05,7.26-8.12"/>
    <path class="cls-4" d="M285.53,295.11s2.22,21.82,3.48,24.04,43.63,5.71,71.12-34.44"/>
    <path class="cls-4" d="M429.73,633.86l-10.03-9.7-12.58-6.22c-3.4-1.68-5.94-4.73-6.97-8.38-.4-1.43-.88-3.1-1.41-4.96-.22-.8-.45-1.63-.7-2.49-.09-.28-.16-.56-.24-.86-.49-1.75-1.02-3.64-1.57-5.61-.4-1.46-.82-2.98-1.25-4.53-.2-.66-.38-1.33-.56-2.02-.96-3.45-1.95-7.08-2.94-10.77l-.92-3.42c-.07-.28-.15-.56-.23-.86l-.59-2.2c-.24-.93-.5-1.86-.73-2.78-.21-.78-.42-1.56-.61-2.33-2.84-10.78-5.45-21.19-7.02-28.56,2.6,13.9-8.29,54.37-17.78,60.05,0-23.39-47.75-139.69-47.75-139.69,0,0,4.14,24.64-4.08,34.76,0-14.38-110.5-173.2-112.86-176.61-.04-.04-.05-.06-.05-.06"/>
    <path class="cls-4" d="M160.97,252.04h.01c.17-.62,12.32-39.77,89.77-46.66,78.08-6.96-10.61-83.37-26.64-78.19"/>
    <path class="cls-4" d="M253.69,189.49c4.38-2.57,5.92-4.86,6.53-7.51,.48-2.09,.38-4.42,.65-7.27,.96-9.8-13.9-32.55-28.44-34.13s-30.97,17.39-31.61,27.19c0,0,1.26,39.82,31.92,30.02,10.42-3.33,16.89-5.93,20.94-8.29"/>
    <path class="cls-4" d="M260.87,174.71s-4.86-2.73-13.15-5.21c-3.66-1.09-8-2.13-12.87-2.88-9.57-1.45-21.21-1.71-34.02,1.14"/>
    <path class="cls-4" d="M234.85,166.62s-7.78,22.45,18.84,22.87h.01"/>
    <path class="cls-4" d="M247.6,169.91s-3.69,13.42,12.61,12.08"/>
    <path class="cls-4" d="M443.6,244.92c.8,5.23,1.47,10.25,2.05,15.06,.12,1.1,.24,2.2,.37,3.28"/>
    <path class="cls-4" d="M301.69,127.91c1.87-.66,54.12-18.84,94.12,8.9,17.21,11.94,32.15,32.37,39.84,66.34,3.44,15.21,6.04,29.1,7.95,41.75"/>
    <path class="cls-4" d="M443.62,244.92h-.01c-1.3-.43-83.86-27.61-91.07-35.76l-7.26-8.22s-52.52-64.73,50.55-64.13"/>
    <path class="cls-4" d="M350.95,179.45s9.48,31.93,34.13,24.35c24.65-7.59,27.5-6.01,23.71-21.81-3.8-15.8-23.07-31.61-29.39-30.66-6.32,.94-30.67,11.38-28.45,28.12Z"/>
    <path class="cls-4" d="M408.8,181.98s-2.61-1.49-7.04-3.18c-1.3-.5-2.74-1.02-4.32-1.52-4.43-1.4-9.92-2.69-16.06-3.2-3.33-.27-6.86-.31-10.51,0-6.38,.54-13.13,2.13-19.91,5.36"/>
    <path class="cls-4" d="M370.87,174.08s1.53,18.24,16.89,16.78c15.35-1.46,14-12.06,14-12.06"/>
    <path class="cls-4" d="M381.37,174.08s1.68,9.9,8.02,9.42,8.03-6.22,8.03-6.22"/>
    <path class="cls-4" d="M490.56,140.49s64.25,25.47,67.1,140.31c.07,3,.17,5.93,.29,8.78,.45,11.26,1.21,21.45,2.23,30.69,.04,.34,.07,.69,.11,1.04,6.25,55.84,21.36,76.22,29.28,83.23,1.15,1.02,2.16,1.75,2.95,2.28,1.19,.78,1.94,1.09,2.08,1.14"/>
    <path class="cls-4" d="M439.45,357.4s0-.01,.01-.02h.01v-.02s.02-.04,.04-.06l.04-.07c2.77-4.65,57.34-99.07,8.7-198.31,20.1,23.39,48.1,62.58,52.52,139.71,19.08-40.36,4.78-112.2-7.23-149.44-.73-2.28-1.46-4.43-2.17-6.44-.27-.76-.54-1.52-.81-2.24-.85-2.31-1.67-4.4-2.44-6.23,19.6,3.8,42.35,7.59,42.35,7.59,0,0-32.87-77.12-122-58.16,15.8-12.64,54.37-34.77,67.01-34.77-20.86-4.42-72.06-25.92-113.15,27.81-10.74-21.48-36.03-59.41-54.99-70.17,10.12,13.28,5.06,64.48,5.06,64.48,0,0-22.13-47.41-73.33-51.83,17.7,16.44,25.92,49.3,25.92,49.3,0,0-93.56-26.54-141.61,77.12l24.03-20.22s-60.69,86.6-42.99,153.61c6.96-37.31,25.92-82.82,38.56-94.82-1.89,12.64-24.02,103.03-5.68,144.12,1.74-12.19,9.63-50.69,19.74-87.36,8.24-29.85,17.95-58.48,27.03-70.67,8.61-11.56,22.93-29.75,40.05-43.1,23.12-18.03,51.35-27.21,77.51,.72"/>
    <path class="cls-4" d="M448.25,158.91s-44.18-104.26-146.55-31c-.04,.01-.05,.02-.05,.02t-.01-.02c-1.1-1.8-64.04-102.85-158.65,56.29"/>
  </g>
  <path class="cls-3" d="M467.27,615.31l4.94,8.85,26.04,46.77s104.94-42.99,109.99-154.88c0-2.52-3.8-2.58-3.8-2.58h-9.72s7.83-5.12,9.72,0c.58,1.54-1.9,8.93-8.56,19.24-15.47,23.93-53.52,63.6-128.61,82.6-3.15,4.94-6.3,10.2-7.85,12.84-.64,1.07-1,1.7-1,1.7"/>
  <path class="cls-6" d="M253.69,189.49c4.38-2.57,5.92-4.86,6.53-7.51,.48-2.09,.38-4.42,.65-7.27,.96-9.8-13.9-32.55-28.44-34.13s-30.97,17.39-31.61,27.19c0,0,1.26,39.82,31.92,30.02,10.42-3.33,16.89-5.93,20.94-8.29h.01Zm-29.58-62.3c16.03-5.18,104.72,71.23,26.64,78.19-77.45,6.9-89.6,46.04-89.77,46.65-2.71-6.9-3.93-11.07-3.93-11.07h-.01c8.24-29.85,17.95-58.48,27.03-70.67,8.61-11.56,22.93-29.75,40.05-43.1Z"/>
  <path class="cls-6" d="M395.81,136.81c17.21,11.94,32.15,32.37,39.84,66.34,3.44,15.21,6.04,29.1,7.95,41.75-1.3-.42-83.86-27.59-91.07-35.75l-7.26-8.22s-52.52-64.73,50.55-64.13Zm-44.86,42.63s9.48,31.93,34.13,24.35c24.65-7.59,27.5-6.01,23.71-21.81-3.8-15.8-23.07-31.61-29.39-30.66-6.32,.94-30.67,11.38-28.45,28.12Z"/>
</svg>