<?xml version="1.0" encoding="UTF-8"?>
<svg id="Layer_1" data-name="Layer 1" xmlns="http://www.w3.org/2000/svg" width="947.34" height="856.37" viewBox="0 0 947.34 856.37">
  <defs>
    <style>
      .cls-1 {
        fill: #5c84a0;
      }

      .cls-2 {
        fill: #d7e2e9;
      }

      .cls-3 {
        fill: #9dd8d7;
      }

      .cls-4 {
        fill: #354856;
      }

      .cls-5 {
        fill: #66a6a4;
      }
    </style>
  </defs>
  <path class="cls-4" d="M507.12,16.58c107.75,3.05,236.92,40.15,340.81,140.86,123.21,119.45,131.76,279.38,26.39,414.97-23.77,30.59-43.18,64.61-64.03,97.41-158.54,249.47-514.8,248.52-672.29-1.56-22.19-35.23-45.52-69.93-70.82-102.97C-28.92,439.84-21.59,284.59,87.08,168.76,177.1,72.8,319.82,16.61,507.12,16.58Z"/>
  <path class="cls-2" d="M470.31,49.7c124.53,2.43,238.56,32.88,334.58,113.64,146.44,123.17,144.3,311-3.61,432.1-178.07,145.8-475.41,146.93-653.23,2.48C-4.13,474.28-5.35,284.77,145.58,160.32,240.17,82.32,351.41,53.01,470.31,49.7Z"/>
  <path class="cls-2" d="M753.76,676.02c-152.93,194.57-401.16,195.36-572.37-6.79,102.82,40.95,192.17,71.21,289.01,70.64,99.3-.59,192.09-24.62,283.36-63.85Z"/>
  <path class="cls-4" d="M471.02,656.62c-115.04,4.55-219.34-29.18-306.97-106.21-114.27-100.45-112.88-248.21,.69-349.87,156.03-139.67,464.36-141.12,620.84-2.91,129.14,114.06,103.6,309.37-49.58,391.55-82.77,44.41-168.53,72.88-264.97,67.44Z"/>
  <path class="cls-5" d="M782.49,487.11c-23.14,81.05-88.48,76.13-136.7,92.23-45.37,15.14-63.3-20.63-69.22-60.09-7.63-50.81,27.06-78.1,66.28-75.19,47.1,3.48,92.68,27.62,139.64,43.06Z"/>
  <path class="cls-1" d="M613.9,412.66c-17.37,9.99-30.69,8.09-43.21,.36-102.33-63.19-206.18-121.11-329.37-135.69-20.06-2.37-67.98-11.56-55.22-43.25,13.64-33.87,40.35,6.73,62.16,10.33,119.66,19.75,230.05,62.99,329.88,132.2,13.09,9.08,32.93,11.33,35.76,36.05Z"/>
  <path class="cls-3" d="M775.9,247.06c36.32,16.59,39.62,52.54,43.41,84.09,4.82,40.15-5.48,81.43-47.05,97.62-59.1,23-99.92-8.68-130.85-57.01-5.2-7.04-5.88-14.35-1.4-21.96q95.11-13.43,135.9-102.73Z"/>
  <path class="cls-1" d="M141.77,281.2c79.37,46.37,174.98,31.34,254.51,70.16,36.74,17.93,71.4,40.13,102.17,71.93-114.74-60.17-251.86-57.59-356.67-142.09Z"/>
  <path class="cls-4" d="M775.9,247.06c5.65,119.25-33.41,148.66-131.03,98.66-43.17-37.09-27.48-75.8,1.48-109.71,37.96-44.44,80.13-24.36,120.41-.19,3.05,3.74,6.09,7.49,9.14,11.23Z"/>
  <path class="cls-1" d="M569.52,331.68c-94.6-82.82-223.91-82.5-329.96-136.06,144.88-8.4,293.1,51.67,329.96,136.06Z"/>
  <path class="cls-5" d="M531.06,484.37c20.53,31.29,15.79,74.57,35.82,109.08,11.62,20.02-21.27,28.01-38.63,26.62-47.26-3.78-54.37-39.15-54.31-77.77,.05-32.74,17.21-50.83,57.13-57.92Z"/>
  <path class="cls-3" d="M766.77,235.82c-112.86-21.47-145.83,8.27-121.89,109.9-1.16,8.68-2.32,17.35-3.47,26.03-25.29-21.36-30.96-50.96-32.76-81.46-2.48-42.16,10.76-77.63,52.82-93.76,45.26-17.36,80.23-.73,105.3,39.3Z"/>
  <path class="cls-1" d="M639.13,165.31c-72.66,3.09-137.55,31.92-213.08,19.29,82.66-54.01,138.94-59.08,213.08-19.29Z"/>
  <path class="cls-5" d="M365.33,478.56c-2.95,24.63-4.34,49.03-9.22,72.72-3.72,18.08,19.89,51.68-18.59,50.86-24.98-.53-29.67-28.99-31.25-52.32-2.78-41.22,1.51-46.71,59.06-71.26Z"/>
  <path class="cls-5" d="M458.5,628.07c-86.7-53.51-88.9-93.44-17.75-144.04,3.73,45.18-5.97,87.55,17.75,144.04Z"/>
  <path class="cls-1" d="M309.24,389.68c-54.25,28.57-89.01,69.87-144.72,41.43,42.37-15.98,78.61-52.33,144.72-41.43Z"/>
  <path class="cls-1" d="M291.58,515.1c-85.29,20.36-95.8,17.14-157.35-45.98,55.94,16.35,96.64,28.24,157.35,45.98Z"/>
  <path class="cls-1" d="M270.24,476.74c23.46-46.47,60.47-64.75,127.64-53.44-54.55,22.84-91.09,38.14-127.64,53.44Z"/>
  <path class="cls-1" d="M310.15,160.79c38.3-23.63,67.69-32.56,104.83-22.57-31.44,29.66-61.51,42.78-104.83,22.57Z"/>
  <path class="cls-1" d="M197.13,379.81c-31.63,7.07-57.26,19.5-87.22-.69,29.46-34.88,55.21-33.66,87.22,.69Z"/>
  <path class="cls-1" d="M742.04,292.64c.6,23.58-9.46,38.36-32.11,41.27-23.63,3.04-36.63-11.18-39.61-32.48-3.18-22.71,10.16-37.97,31.89-39.9,20.91-1.86,36.66,8.91,39.83,31.11Z"/>
</svg>