<?xml version="1.0" encoding="UTF-8"?>
<svg id="Layer_2" data-name="Layer 2" xmlns="http://www.w3.org/2000/svg" width="947.34" height="856.37" viewBox="0 0 947.34 856.37">
  <defs>
    <style>
      .cls-1 {
        fill: #d7e2e9;
      }

      .cls-2 {
        fill: #9dd8d7;
      }

      .cls-3 {
        fill: #354856;
      }

      .cls-4 {
        fill: #66a6a4;
      }

      .cls-5 {
        fill: #4a667c;
      }

      .cls-6 {
        fill: #fad3e0;
      }
    </style>
  </defs>
  <path class="cls-3" d="M96.83,422.9c0-44.72,2.95-89.68-.61-134.12-7.85-97.97,39.68-163.84,121.31-205.32C388.21-3.25,561.37-3.01,731.66,85.05c82,42.41,124.32,109.53,119.17,206.87-4.96,93.66-3.35,187.86-.35,281.68,2.38,74.74-30.19,128.48-87.38,170.89-148.79,110.33-425.74,111.28-576.81,2.11-59.94-43.31-94.62-98.79-90-176.15,2.93-49.02,.55-98.36,.55-147.56Z"/>
  <path class="cls-5" d="M821.86,345.65c0,93.35,2.48,175.68-.77,257.79-2.69,68.08-50.2,110.09-104.92,137.75-164.68,83.22-331.44,83.19-494.58-4.87-67.71-36.55-104.31-93.55-98.55-175.96,4.76-68.08,.97-136.76,.97-209.52,240.85,170.98,488.16,170.68,697.85-5.18Z"/>
  <path class="cls-1" d="M476.22,47.56c97.14,3.16,190.92,19.62,271.49,79.1,98.58,72.78,99.52,169.61,3.83,244.01-138.07,107.34-417.28,107.58-556.05,.46-96.19-74.25-95.97-171.24,2.13-243.85,82.47-61.05,178.53-77.31,278.61-79.71Z"/>
  <path class="cls-3" d="M688.83,317.91c-106.27,82.22-307.73,89.43-416.25,14.89-73.06-50.18-73.05-116.18,.02-166.24,108.69-74.46,309.98-67.22,416.3,14.97,5.23,12.07-2.26,17.11-11.62,21.14-28.43,3.59-50.26-14.89-75.25-22.84-35.69-11.36-55.97,6.52-66.73,36.72-12.75,35.78,18.79,38.78,40.12,47.5,20.56,8.41,42.98,10.53,64.43,16.26,17.59,10.87,50.13,2.43,48.98,37.59Z"/>
  <path class="cls-3" d="M688.83,317.91c-11.64-22.56-40.99-6.34-54.47-24.89,40.96-20.82,49.57-54.88,39.53-96.57,5-4.97,10-9.94,15-14.91,55.69,56.11,55.68,80.42-.06,136.37Z"/>
  <path class="cls-6" d="M511.27,163.29c-28.53,67.88-78.69,114.75-145.03,147.53-33.85,16.73-61.59,16.67-90.44-8.87-37.58-33.27-43.21-68.11-3.08-100.51,63.94-51.62,140.88-61.31,219.86-57.77,19.17,.86,19.02,4.3,18.68,19.63Z"/>
  <path class="cls-2" d="M673.89,196.45c44.11,69.11,35.58,89.95-39.53,96.57-19.45-4.57-40.73-5.61-57.91-14.54-25.18-13.09-78.01-1.61-68.63-48.44,15.12-75.47,46.4-88.58,112.85-60.66,18.3,7.69,35.51,17.97,53.22,27.07Z"/>
  <path class="cls-4" d="M634.53,323.2c-90.12,37.67-168.21,42.09-263.22,20.75,49.35-25.18,73.02-77.77,122.03-64.76,44.23,11.74,87.7,30.3,141.19,44Z"/>
</svg>