<?xml version="1.0" encoding="UTF-8"?>
<svg id="Layer_1" data-name="Layer 1" xmlns="http://www.w3.org/2000/svg" width="882.76" height="882.76" xmlns:xlink="http://www.w3.org/1999/xlink" viewBox="0 0 882.76 882.76">
  <defs>
    <style>
      .cls-1 {
        fill: #354856;
      }

      .cls-2 {
        fill: url(#linear-gradient);
      }

      .cls-3 {
        fill: #9dd8d7;
      }

      .cls-3, .cls-4 {
        stroke: #354856;
        stroke-miterlimit: 10;
        stroke-width: 7px;
      }

      .cls-4 {
        fill: #66a6a4;
      }
    </style>
    <linearGradient id="linear-gradient" x1="5.5" y1="441.38" x2="877.26" y2="441.38" gradientTransform="matrix(1, 0, 0, 1, 0, 0)" gradientUnits="userSpaceOnUse">
      <stop offset="0" stop-color="#aed7f2"/>
      <stop offset="1" stop-color="#8ab0c9"/>
    </linearGradient>
  </defs>
  <g>
    <path class="cls-2" d="M441.38,877.26c-58.85,0-115.93-11.52-169.66-34.25-51.9-21.95-98.52-53.38-138.55-93.42s-71.46-86.65-93.41-138.55c-22.73-53.73-34.25-110.82-34.25-169.66s11.52-115.93,34.25-169.66c21.95-51.9,53.38-98.52,93.41-138.55S219.81,61.7,271.72,39.75C325.45,17.02,382.53,5.5,441.38,5.5s115.93,11.52,169.66,34.25c51.9,21.95,98.52,53.38,138.55,93.41s71.46,86.65,93.42,138.55c22.73,53.73,34.25,110.82,34.25,169.66s-11.52,115.93-34.25,169.66c-21.95,51.9-53.38,98.52-93.42,138.55s-86.65,71.46-138.55,93.42c-53.73,22.73-110.82,34.25-169.66,34.25Z"/>
    <path class="cls-1" d="M441.38,11c58.11,0,114.47,11.38,167.52,33.82,51.25,21.68,97.28,52.71,136.8,92.24,39.53,39.53,70.56,85.56,92.24,136.8,22.44,53.05,33.82,109.41,33.82,167.52s-11.38,114.47-33.82,167.52c-21.68,51.25-52.71,97.28-92.24,136.8-39.53,39.53-85.56,70.56-136.8,92.24-53.05,22.44-109.41,33.82-167.52,33.82s-114.47-11.38-167.52-33.82c-51.25-21.68-97.28-52.71-136.8-92.24-39.53-39.53-70.56-85.56-92.24-136.8-22.44-53.05-33.82-109.41-33.82-167.52s11.38-114.47,33.82-167.52c21.68-51.25,52.71-97.28,92.24-136.8,39.53-39.53,85.56-70.56,136.8-92.24,53.05-22.44,109.41-33.82,167.52-33.82m0-11C197.61,0,0,197.61,0,441.38s197.61,441.38,441.38,441.38,441.38-197.61,441.38-441.38S685.15,0,441.38,0h0Z"/>
  </g>
  <path class="cls-4" d="M364.06,272.78s-41.38,43.68-41.38,50.57,60.92,18.39,41.38,85.06,11.49,106.9,26.44,112.64,65.52,13.79,55.17,64.37c-10.34,50.57,39.08,56.32,80.46,48.28s149.43-62.07,119.54-91.95-118.39-70.11-25.29-87.36c93.1-17.24,165.52-52.87,143.68-102.3s-94.25-135.63-136.78-116.09-88.51-19.54-134.48-16.09-83.91-6.9-94.25,4.6-34.48,48.28-34.48,48.28Z"/>
  <path class="cls-3" d="M41.07,485.43s37.93-5.75,45.98,0,17.24,33.33,32.18,55.17,14.94,20.69,42.53,43.68,49.43,17.24,54.02,47.13,11.49,41.38,0,54.02-32.18,5.75-39.08-9.2-11.49-34.48-31.03-49.43-27.59-10.6-45.98-42.66-58.62-98.72-58.62-98.72Z"/>
  <path class="cls-3" d="M241.07,226.81s-25.29,29.89-24.14,37.93,5.75,18.39,18.39,19.54,5.75-13.79,31.03-16.09,36.78-5.68,44.83-12.61,28.74-26.17,11.49-36.66-9.2-20.84-28.74-16.24-52.87,24.14-52.87,24.14Z"/>
  <path class="cls-4" d="M82.44,334.72c0,.09,.02,.16,.05,.24,.89,1.89,12.85,27.84,19.49,66.56,6.9,40.23,5.14,45.98,29.58,88.51s34.79,68.97,47.43,72.41,60.85-23.95,63.14-25.24c.06-.03,.1-.07,.15-.12,1.57-1.79,32.36-36.86,41.32-42.46s28.74-54.34,34.48-66.82-5.75-29.73-19.54-44.67-30.15-41.38-25.42-48.28c4.04-5.89,29.8-38.59,37.22-47.99,.41-.52-.19-1.21-.77-.9-4.91,2.69-16.56,8.25-36.45,13.25-27.45,6.9-49.29,13.79-65.39-3.45s-32.2-67.75-33.28-71.09c-.04-.12-.1-.21-.2-.29-1.7-1.27-17.47-12.37-23.99,10.46-6.9,24.14-36.78,25.29-52.87,34.48s-14.99,62.4-14.94,65.39Z"/>
  <path class="cls-3" d="M704.29,488.88c-4.6,8.05-37.93,13.79-25.29,41.38s18.39,52.32,16.09,57.19,27.59,7.18,36.78,7.18,27.59-21.84,31.03-27.59,35.63-32.18,17.24-47.13-75.86-31.03-75.86-31.03Z"/>
  <path class="cls-4" d="M329.35,840.6s2.3-26.44,27.59-33.33,57.47,1.15,77.01-14.94,49.43-33.33,59.77-37.93,52.87-18.39,89.66-9.2,91.95-21.84,95.4,1.15,0,37.3-13.79,42.79-82.76,33.07-87.36,36.52-32.18,17.24-78.16,20.69-98.85,3.45-119.54,3.45-50.57-9.2-50.57-9.2Z"/>
  <path class="cls-3" d="M433.02,46.35s-21.84,9.2-12.64,21.84,37.93,39.08,79.31,42.53,77.01-14.94,66.67-25.29-6.9-47.13-39.08-39.08-59.77,5.76-66.67-1.14-27.59,1.14-27.59,1.14Z"/>
</svg>